<svg id="Layer_1" data-name="Layer 1" xmlns="http://www.w3.org/2000/svg" xmlns:xlink="http://www.w3.org/1999/xlink" viewBox="0 0 909.87 568.47"><defs><style>.cls-1,.cls-20,.cls-22,.cls-27,.cls-28,.cls-29{fill:none;}.cls-2{clip-path:url(#clip-path);}.cls-3{fill:#b5d7ff;}.cls-4{fill:#bbcdf9;}.cls-5{fill:#aec1fc;}.cls-6{fill:#619ffc;}.cls-7{fill:#5f8ee5;}.cls-8{fill:#fff;}.cls-9{fill:#bdd4ff;}.cls-10{fill:#bbdefb;opacity:0.1;}.cls-11{opacity:0.39;}.cls-12{fill:#ebf1ff;}.cls-13{fill:#1d219d;}.cls-14{fill:#ffa689;}.cls-15{fill:#2067ff;}.cls-16{fill:#2082ff;}.cls-17{fill:#204dff;}.cls-18{fill:#5172ed;}.cls-19{fill:#ed8a6d;}.cls-20{stroke:#060412;stroke-width:0.94px;}.cls-20,.cls-22{stroke-miterlimit:10;}.cls-21{fill:#1d004d;}.cls-22,.cls-27,.cls-28,.cls-29{stroke:#fff;}.cls-22{stroke-width:0.25px;opacity:0.22;}.cls-23{fill:#1d37cd;}.cls-24{fill:#1d39d7;}.cls-25{fill:#2093ff;}.cls-26{fill:#1c163f;}.cls-27,.cls-28,.cls-29{stroke-linecap:round;stroke-linejoin:round;}.cls-27{stroke-width:0.4px;}.cls-28{stroke-width:0.48px;}.cls-29{stroke-width:0.44px;}</style><clipPath id="clip-path" transform="translate(-83.76 6.22)"><path class="cls-1" d="M810,51.28H503.7c-2,23.78-16.41,67.93-91,91.57-105.4,33.39-156.5,77.27-146,155S351.15,430.1,452,445.36s131.21,77.82,215.13,86.93c69.22,7.52,113.58-1.78,153-23.56V61.45A10.18,10.18,0,0,0,810,51.28Z"/></clipPath></defs><g class="cls-2"><path class="cls-3" d="M810,51.28H503.7c-2,23.78-16.41,67.93-91,91.57-105.4,33.39-156.5,77.27-146,155S351.15,430.1,452,445.36s131.21,77.82,215.13,86.93c69.22,7.52,113.58-1.78,153-23.56V61.45A10.18,10.18,0,0,0,810,51.28Z" transform="translate(-83.76 6.22)"/><path class="cls-4" d="M636.45,224l-55.1,17.11L539,215.94a1.14,1.14,0,0,1,.25-2.06h0a36.39,36.39,0,0,1,15.86-1.28Z" transform="translate(-83.76 6.22)"/><path class="cls-5" d="M550.38,212.26l39.7,23.62,40.74-12.65-75.7-10.63A34.23,34.23,0,0,0,550.38,212.26Z" transform="translate(-83.76 6.22)"/><path class="cls-6" d="M450.74,261l-.7.22a20.87,20.87,0,0,1-15.64-1.32L383.29,234a9,9,0,0,0-6.73-.57L373,234.54a1.19,1.19,0,0,0-.74,1.6l18.48,43.47,2.69,6.25,59.31-18.41Z" transform="translate(-83.76 6.22)"/><path class="cls-7" d="M504.06,288.6l226.72-70.38a182,182,0,0,0,37.28-16.36l29.82-17.32a6.53,6.53,0,0,0,1.19-.9h0a6.28,6.28,0,0,0-3.55-10.77l-33.39-4.26a46.58,46.58,0,0,0-19.77,1.73l-347.84,108a3.91,3.91,0,0,0-2,1.41h0a4,4,0,0,0,2,6.16l6,2A170.61,170.61,0,0,0,504.06,288.6Z" transform="translate(-83.76 6.22)"/><path class="cls-8" d="M489.23,280.31l251.38-78.05a200.46,200.46,0,0,0,41.33-18.14l16.88-9.8a6.09,6.09,0,0,0-3.3-1.45l-33.39-4.26a46.58,46.58,0,0,0-19.77,1.73l-347.84,108a3.91,3.91,0,0,0-2,1.41,4,4,0,0,0-.07,4.63A189.36,189.36,0,0,0,489.23,280.31Z" transform="translate(-83.76 6.22)"/><path class="cls-5" d="M752,179.06l26.82-8.32-16.72-2.19-12.19,3.78a3.52,3.52,0,0,0-2.32,4.41h0A3.52,3.52,0,0,0,752,179.06Z" transform="translate(-83.76 6.22)"/><rect class="cls-5" x="712.2" y="188.03" width="5.18" height="5.18" rx="0.89" transform="matrix(-0.96, 0.3, -0.3, -0.96, 1370.19, 166.92)"/><rect class="cls-5" x="697.5" y="192.59" width="5.18" height="5.18" rx="0.89" transform="translate(1342.8 180.26) rotate(162.75)"/><rect class="cls-5" x="682.8" y="197.16" width="5.18" height="5.18" rx="0.89" transform="translate(1315.42 193.52) rotate(162.75)"/><rect class="cls-5" x="668.09" y="201.72" width="5.18" height="5.18" rx="0.89" transform="translate(1288.03 206.82) rotate(162.75)"/><rect class="cls-5" x="653.39" y="206.28" width="5.18" height="5.18" rx="0.89" transform="translate(1260.64 220.05) rotate(162.75)"/><rect class="cls-5" x="638.69" y="210.85" width="5.18" height="5.18" rx="0.89" transform="translate(1233.25 233.33) rotate(162.75)"/><rect class="cls-5" x="623.99" y="215.41" width="5.18" height="5.18" rx="0.89" transform="translate(1205.86 246.66) rotate(162.75)"/><rect class="cls-5" x="609.29" y="219.98" width="5.18" height="5.18" rx="0.89" transform="translate(1178.47 259.94) rotate(162.75)"/><rect class="cls-5" x="594.59" y="224.54" width="5.18" height="5.18" rx="0.89" transform="matrix(-0.96, 0.3, -0.3, -0.96, 1151.09, 273.23)"/><rect class="cls-5" x="579.89" y="229.1" width="5.18" height="5.18" rx="0.89" transform="translate(1123.7 286.46) rotate(162.75)"/><rect class="cls-5" x="565.19" y="233.67" width="5.18" height="5.18" rx="0.89" transform="translate(1096.31 299.74) rotate(162.75)"/><rect class="cls-5" x="550.49" y="238.23" width="5.18" height="5.18" rx="0.89" transform="translate(1068.92 313.07) rotate(162.75)"/><rect class="cls-5" x="535.78" y="242.8" width="5.18" height="5.18" rx="0.89" transform="translate(1041.53 326.35) rotate(162.75)"/><path class="cls-4" d="M659.86,221.35,575,247.69l-31.18,67.63a2.37,2.37,0,0,0,2.85,3.25l2.07-.64A40.24,40.24,0,0,0,564,309.17Z" transform="translate(-83.76 6.22)"/><path class="cls-6" d="M561.35,310.36a2.49,2.49,0,0,0-.21,1.18c1-.75,1.94-1.53,2.86-2.37l95.86-87.82-67.08,20.82Z" transform="translate(-83.76 6.22)"/><polygon class="cls-6" points="338.15 280.68 308.29 289.95 296.54 315.45 302.07 313.73 338.15 280.68"/><path class="cls-8" d="M407.53,201.56c1.71-3.18,6.43-5.47,12-5.47a19.28,19.28,0,0,1,4.39.51,8.91,8.91,0,0,1,4.84-4.74c1.49-7.17,11.07-12.71,22.7-12.71,8.77,0,16.38,3.15,20.23,7.77a21.15,21.15,0,0,1,7.23-1.24c8,0,14.5,4.15,14.5,9.26a5.87,5.87,0,0,1-.14,1.19c.43,0,.87,0,1.31,0,5.55,0,10.27,2.29,12,5.47Z" transform="translate(-83.76 6.22)"/><path class="cls-8" d="M235,253c1.72-3.18,6.43-5.46,12-5.46a19.26,19.26,0,0,1,4.38.5,8.93,8.93,0,0,1,4.85-4.74c1.48-7.17,11.06-12.71,22.69-12.71,8.77,0,16.38,3.16,20.24,7.78a20.87,20.87,0,0,1,7.23-1.24c8,0,14.49,4.14,14.49,9.26a6,6,0,0,1-.14,1.19c.43,0,.87,0,1.31,0,5.56,0,10.27,2.28,12,5.46Z" transform="translate(-83.76 6.22)"/><path class="cls-8" d="M639.08,285.09c1.72-3.18,6.43-5.46,12-5.46a19.29,19.29,0,0,1,4.39.5,8.87,8.87,0,0,1,4.84-4.74c1.48-7.17,11.07-12.71,22.7-12.71,8.77,0,16.38,3.16,20.23,7.78a20.87,20.87,0,0,1,7.23-1.24c8,0,14.49,4.14,14.49,9.26a5.94,5.94,0,0,1-.13,1.19c.43,0,.86,0,1.3,0,5.56,0,10.27,2.28,12,5.46Z" transform="translate(-83.76 6.22)"/><path class="cls-8" d="M673,174.83c-1.74-3.23-6.52-5.55-12.17-5.55a19.16,19.16,0,0,0-4.44.52,9,9,0,0,0-4.92-4.81c-1.5-7.28-11.23-12.9-23-12.9-8.9,0-16.63,3.2-20.54,7.89a21.21,21.21,0,0,0-7.33-1.26c-8.12,0-14.71,4.2-14.71,9.39a6.06,6.06,0,0,0,.14,1.21c-.44,0-.88,0-1.33,0-5.64,0-10.42,2.32-12.16,5.55Z" transform="translate(-83.76 6.22)"/><path class="cls-8" d="M661,87.72c1.37-2.53,5.14-4.36,9.58-4.36a15.76,15.76,0,0,1,3.5.4A7.1,7.1,0,0,1,678,80c1.19-5.73,8.84-10.15,18.13-10.15,7,0,13.08,2.52,16.15,6.21a16.71,16.71,0,0,1,5.78-1c6.39,0,11.57,3.31,11.57,7.39a4.33,4.33,0,0,1-.11,1c.34,0,.69,0,1,0,4.44,0,8.2,1.83,9.58,4.36Z" transform="translate(-83.76 6.22)"/><path class="cls-8" d="M536,76.11c.61-1.12,2.28-1.93,4.24-1.93a6.54,6.54,0,0,1,1.56.18,3.12,3.12,0,0,1,1.71-1.68c.53-2.54,3.92-4.5,8-4.5,3.1,0,5.8,1.11,7.16,2.75a7.43,7.43,0,0,1,2.56-.44c2.84,0,5.13,1.47,5.13,3.28a3,3,0,0,1,0,.42h.46c2,0,3.63.81,4.24,1.93Z" transform="translate(-83.76 6.22)"/><path class="cls-8" d="M862.21,248.54c-1.56-2.88-5.83-5-10.88-5a17.51,17.51,0,0,0-4,.46,8.09,8.09,0,0,0-4.4-4.3c-1.35-6.51-10.05-11.54-20.61-11.54-8,0-14.88,2.86-18.38,7.06a18.87,18.87,0,0,0-6.56-1.13c-7.27,0-13.16,3.76-13.16,8.41a5.58,5.58,0,0,0,.12,1.08c-.39,0-.78,0-1.18,0-5,0-9.33,2.08-10.89,5Z" transform="translate(-83.76 6.22)"/><rect class="cls-9" x="162.1" y="445.1" width="663.54" height="118.97"/><rect class="cls-9" x="162.1" y="401.21" width="663.54" height="25.72"/><rect class="cls-10" x="152.41" y="57.5" width="583.96" height="497.68"/><g class="cls-11"><polygon class="cls-8" points="144.71 551.09 118.71 551.09 456.24 31.69 482.24 31.69 144.71 551.09"/><polygon class="cls-8" points="572.34 551.09 546.34 551.09 883.87 31.69 909.87 31.69 572.34 551.09"/><polygon class="cls-8" points="524.32 551.09 426.59 551.09 764.12 31.69 861.85 31.69 524.32 551.09"/><polygon class="cls-8" points="97.73 551.09 0 551.09 337.53 31.69 435.26 31.69 97.73 551.09"/></g><rect class="cls-8" x="298.21" width="14.28" height="549.05"/><rect class="cls-8" x="665.48" width="14.28" height="549.05"/><rect class="cls-8" x="565.44" y="-243.29" width="14.62" height="761.03" transform="translate(626.21 -429.3) rotate(90)"/></g><ellipse class="cls-12" cx="436.93" cy="555.88" rx="129.17" ry="12.59"/><path class="cls-13" d="M573.59,372.87l-45.87,11.58s11.85,51.43,16.47,70.27c4.72,19.3,2.1,81.36,2.1,81.36h13.12l7.09-81.6Z" transform="translate(-83.76 6.22)"/><path class="cls-14" d="M563.61,289.3s4.68,16.15,12.23,43.53c0,0,9.74,3.54,36.08,5.4l-.83,8.76s-29,5.25-45.06-1.36S536.58,280.44,563.61,289.3Z" transform="translate(-83.76 6.22)"/><polygon class="cls-15" points="505.25 351.97 518.98 367.87 541.18 338.97 532.2 321.66 505.25 351.97"/><polygon class="cls-16" points="502.83 358.63 526.15 327.37 541.18 338.97 518.98 367.87 502.83 358.63"/><path class="cls-14" d="M621.08,339.18a.74.74,0,0,0-1.13-.39c-.81.51-1.76,1.7-4,1.77s-5.22-1.5-6.19-.48c0,0-4.87,6.22.07,12.37C609.81,352.45,624.78,356.35,621.08,339.18Z" transform="translate(-83.76 6.22)"/><path class="cls-17" d="M554.36,336a46.59,46.59,0,0,0,21.23-10s-3.38-18.2-8.09-29.18-12.14-20.59-24.22-13.44S534.72,307,554.36,336Z" transform="translate(-83.76 6.22)"/><path class="cls-18" d="M515.41,328.66A46.65,46.65,0,0,0,538,335s9.33-16,12.93-27.38,4.25-23.52-9.57-26S519.49,293.83,515.41,328.66Z" transform="translate(-83.76 6.22)"/><path class="cls-13" d="M567.27,377.82s-28.34-9.58-45.92,6.26a136.25,136.25,0,0,0,12.92,32.68C550.66,446.87,559,456.61,559,456.61s-17.86,15.9-52.28,55.63c0,0,2.15,8.13,9.08,10.73,0,0,50.45-47.58,65.67-60.27,5-4.14,4-7.27,2-16.45C580.2,430.7,569.21,384.91,567.27,377.82Z" transform="translate(-83.76 6.22)"/><path class="cls-14" d="M543.13,259.87l-.61,12.44s9.77,8.05,17.82,7.67l3.71-16.58-22.77-15.47Z" transform="translate(-83.76 6.22)"/><path class="cls-19" d="M547.83,257.7s5.2,9.68,14.67,12.64l1.55-6.94Z" transform="translate(-83.76 6.22)"/><path class="cls-13" d="M527.83,429.19,504.68,411.6a2.94,2.94,0,0,1-.57-4.14h0a3,3,0,0,1,4.14-.56l23.15,17.58a3,3,0,0,1,.57,4.14h0A3,3,0,0,1,527.83,429.19Z" transform="translate(-83.76 6.22)"/><line class="cls-20" x1="424.8" y1="419.79" x2="373.89" y2="486.83"/><line class="cls-20" x1="441.1" y1="432.21" x2="390.19" y2="499.25"/><path class="cls-17" d="M522.83,291.5s-24.78,1.24-28.76,15.22-3.44,68.95-3.44,68.95,5.22,12.49,22,14.1c0,0,8.74,2,8.23-16.32S522.83,291.5,522.83,291.5Z" transform="translate(-83.76 6.22)"/><path class="cls-15" d="M508.88,294.21a17.31,17.31,0,0,0-3.8,5c-4.87,10.46-3.37,38.64-5.44,40.91-1.72,1.89-4.64,2.24-7.53,3-1.23.33-2.66-.45-2.61-1.65C490.6,317.43,488.74,297.38,508.88,294.21Z" transform="translate(-83.76 6.22)"/><path class="cls-15" d="M490.86,346.58s6.66-1.53,7.82.06c1.66,2.27,1,28.14-.84,28.84s-8.34.14-8.71-.4C487.75,373,486.89,347.41,490.86,346.58Z" transform="translate(-83.76 6.22)"/><path class="cls-14" d="M574.7,228.68s6.87,33.42-3.34,37.5-25.13-6.31-28.78-16.89C539.47,240.27,539.79,218.84,574.7,228.68Z" transform="translate(-83.76 6.22)"/><path class="cls-21" d="M564.59,233.93s2.77,7.09-2.7,8.77a8.94,8.94,0,0,0-5.76,4.64s-.91-7.14-5.77-7.4c-5.29-.29-5,7.26-.35,11,0,0,0,9-6.88,9,0,0-15.5-17.79-8.72-28.51-1-3.26,3.63-12,15.51-13.11s15.29,1.66,24.31-1.14C582.86,214.43,588.55,235.13,564.59,233.93Z" transform="translate(-83.76 6.22)"/><polyline class="cls-22" points="461.25 381.27 491.83 460.7 426.97 522.96"/><path class="cls-21" d="M459,549.62a7.43,7.43,0,1,1-7.43-7.43A7.43,7.43,0,0,1,459,549.62Z" transform="translate(-83.76 6.22)"/><path class="cls-21" d="M431.36,536.5a7.43,7.43,0,1,1-7.43-7.43A7.42,7.42,0,0,1,431.36,536.5Z" transform="translate(-83.76 6.22)"/><path class="cls-23" d="M491.58,479.19s2.29,33.17-9.59,51.49S452.78,546,452.78,546l3.57-5.62s12.52,5.12,19.94-14.43,5.94-39.86,5.94-39.86Z" transform="translate(-83.76 6.22)"/><path class="cls-17" d="M477.84,469.81a21.67,21.67,0,0,1,13.33,7.78c4.54,5.45-29.48,58.06-37.14,69.74a3.84,3.84,0,0,1-4.21,1.61c-5.48-1.46-18.13-5.39-27.32-12.32C422.5,536.62,457.63,475,477.84,469.81Z" transform="translate(-83.76 6.22)"/><path class="cls-24" d="M480.48,470.4s-27.93-16.81-42.93-2.85c-9.95,9.26-29.14,35.34-36.57,45.63a6.2,6.2,0,0,0,.68,8.06,121.9,121.9,0,0,0,21.93,16,2.3,2.3,0,0,0,3-.76C432.67,527.27,461.73,484,480.48,470.4Z" transform="translate(-83.76 6.22)"/><path class="cls-25" d="M418.61,491.42a2.6,2.6,0,0,0-3.57.71c-3.56,4.67-12.43,16.33-13.74,18.53-2.58,4.32,7.94,13.45,20.8,20.22,4,2.12,8.93-7.08,14.1-14.13,3.42-4.67,6.38-8.76,6-10.28s-7.12-3.71-13.24-7.5A117.85,117.85,0,0,1,418.61,491.42Z" transform="translate(-83.76 6.22)"/><path class="cls-25" d="M480.48,470.4A58.94,58.94,0,0,0,450,461.17c-15.21-.23-31.92,26.1-31.92,26.1-2.16,2.78,23.9,18.56,26.8,15a281.9,281.9,0,0,1,28.51-30.14C473.74,471.75,476.84,469.26,480.48,470.4Z" transform="translate(-83.76 6.22)"/><path class="cls-15" d="M433.14,533.82l15.56-23.47a2,2,0,0,1,2.59-.72l15.23,7.22a1.75,1.75,0,0,1,.71,2.55l-15.08,22.86a3.31,3.31,0,0,1-4,1.23l-13.8-5.76A2.65,2.65,0,0,1,433.14,533.82Z" transform="translate(-83.76 6.22)"/><path class="cls-16" d="M539.05,273.89s-15.23,2.75-17.7,25.53,0,87.24,0,87.24a40.78,40.78,0,0,0,30.44-2.35c10.41-5.07,17.07-5.35,19.88-6a2.5,2.5,0,0,0,2-2.42c0-2.48.07-7.27.06-14.47,0-20.13-2.22-54.36-10.89-77.86C562.79,283.57,548.09,274.6,539.05,273.89Z" transform="translate(-83.76 6.22)"/><path class="cls-15" d="M549.32,315.5c-12.71-.64-22.11,4.45-29.06,12.28-.14,26.87,1.09,58.88,1.09,58.88a39.75,39.75,0,0,0,19.78,1.16C533,375.47,533,364.13,540,350.24,545.55,339.12,549.32,315.5,549.32,315.5Z" transform="translate(-83.76 6.22)"/><path class="cls-23" d="M521.35,299.42s12.08-19.66,20.91-16.34c10.86,4.08,13.07,25.09-3.21,47.08l-8.67,9.18-2.23,8.17s22.1-19.5,27.3-38.44-1.63-26.46-11.14-29.7c-11.7-4-17.31,3.13-24.44,13Z" transform="translate(-83.76 6.22)"/><path class="cls-14" d="M519.37,319.72a247.47,247.47,0,0,0-5,36.39c-1,17.08-1.21,38.09-1.24,44.34a4,4,0,0,1-1.18,2.86,18.32,18.32,0,0,0-5.27,14.81c.23,2.78,1.44,6.6,8.33,8.81,1,.3,3.44,1.34,3.44-3.49s2-8.08,3.93-9.68,4,2.63,4,6.09,2.32,1.27,2.79-1.19.09-9.05-5.11-15.92c0,0-.09-1.2.56-9.47s2-36.23,5-43.38,11.51-27.54,11.51-27.54Z" transform="translate(-83.76 6.22)"/><path class="cls-16" d="M515.41,330.25A58.28,58.28,0,0,0,538,335s9.33-16,12.93-27.38,4.25-23.52-9.57-26S519.49,295.42,515.41,330.25Z" transform="translate(-83.76 6.22)"/><path class="cls-21" d="M546.54,534.72a17.4,17.4,0,0,0-1.87,13,2.43,2.43,0,0,0,2.33,1.92h39.42a1.42,1.42,0,0,0,1.35-1.63c-.26-2.24-2.11-6.13-11.47-7.29a14.14,14.14,0,0,1-7.06-2.87c-3.37-2.64-8.51-6.25-10.28-5.25A19.24,19.24,0,0,1,546.54,534.72Z" transform="translate(-83.76 6.22)"/><path class="cls-17" d="M542.66,269.59c-1.4.05-3.61,4.3-3.61,4.3s4.17,3.22,14.32,6.93c4.7,1.72,7,4.15,8.14,5.67a.61.61,0,0,0,1.11-.28c.3-2.25.43-6.21-1.77-8.51C560.85,277.7,546.88,273.89,542.66,269.59Z" transform="translate(-83.76 6.22)"/><path class="cls-21" d="M507,512.36A17.34,17.34,0,0,0,496,519.61a2.42,2.42,0,0,0,.1,3l26.21,29.45a1.43,1.43,0,0,0,2.12-.08c1.5-1.68,3.17-5.65-2.18-13.41a14.23,14.23,0,0,1-2.55-7.18c-.27-4.28-1-10.51-2.92-11.18A19.31,19.31,0,0,1,507,512.36Z" transform="translate(-83.76 6.22)"/><polygon class="cls-13" points="439.47 424.49 445.67 429.2 445.16 431.96 437.93 428.34 439.47 424.49"/><path class="cls-26" d="M353.81,475.18c0,1.78-9.71,3.22-21.69,3.22s-21.68-1.44-21.68-3.22,9.71-3.23,21.68-3.23S353.81,473.39,353.81,475.18Z" transform="translate(-83.76 6.22)"/><ellipse class="cls-12" cx="248.36" cy="554.78" rx="40.74" ry="4.69"/><path class="cls-16" d="M337.4,480.83s-4.49-13.53,1.25-19.66-3.45-16.45,10.16-22.28,13.13-19.47,25-19.53,21.14-5.58,25-.34-14.09,7.77-14.13,16.64-1.79,9.72-6.64,15.26c-2.72,3.1-1.45,10-7.49,16.6C365.79,472.73,353.33,471,337.4,480.83Z" transform="translate(-83.76 6.22)"/><path class="cls-27" d="M337.4,480.83s5.67-13.58,18.72-20.78,8.45-36.48,42.67-41" transform="translate(-83.76 6.22)"/><path class="cls-24" d="M340.08,487.27s-2.39-19.36,2-34.92-2.78-20.54-15.05-24.56S322.45,411,318.8,399s-12.84,6.62-15.89-9.66-7.7-24.68-11.41-24-4.95,4.29-7.6,22.91-15.58,17.24-4.37,32,14.07,10.58,7.84,23.39C274.07,471,321.69,462.91,340.08,487.27Z" transform="translate(-83.76 6.22)"/><path class="cls-28" d="M340.08,487.27s-6.1-32.56-23.71-48.64-29.27-33.27-24.87-73.27" transform="translate(-83.76 6.22)"/><path class="cls-16" d="M334,484.62S314.84,434,301.68,437.18s-14.47,3.87-26.46-5.71-20.7.87-11.54,8.55,9.5,8.37.75,16.83,12.12,17.92,30.47,15.07S331.07,480.44,334,484.62Z" transform="translate(-83.76 6.22)"/><path class="cls-29" d="M334,484.62s-9-18.82-33.09-23.7-12.85-20.79-41-28.16" transform="translate(-83.76 6.22)"/><path class="cls-13" d="M332.12,478.4c-10,0-18.45-1-20.93-2.39,2.46,3.19,10.35,17.37,15,71.93,0,.79,2.65,1.44,5.91,1.44s5.92-.65,5.92-1.44c4.67-54.56,12.55-68.74,15-71.93C350.58,477.39,342.16,478.4,332.12,478.4Z" transform="translate(-83.76 6.22)"/></svg>