<svg id="Layer_1" data-name="Layer 1" xmlns="http://www.w3.org/2000/svg" xmlns:xlink="http://www.w3.org/1999/xlink" viewBox="0 0 692.65 494.92"><defs><style>.cls-1{fill:none;}.cls-2{fill:#4db6ed;opacity:0.25;}.cls-3{fill:#83bdf9;}.cls-4{fill:#206aff;}.cls-5{fill:#1d4dd7;}.cls-6{fill:#2082ff;}.cls-7{fill:#c4e1f8;}.cls-8{fill:#69b6ed;}.cls-9{fill:#e6ac8b;}.cls-10{clip-path:url(#clip-path);}.cls-11{fill:#1d39d7;}.cls-12{fill:#f99926;}.cls-13{fill:#fff;}.cls-14{fill:#2099ff;}.cls-15{fill:#1d004d;}.cls-16{fill:#0b57f6;}.cls-17{fill:#0c8e8b;}.cls-18{fill:#1d27d7;}.cls-19{fill:#ffb48d;}.cls-20{fill:#1d0d8f;}.cls-21{fill:#1d49f9;}.cls-22{fill:#0b73f6;}.cls-23{fill:#f6a071;}.cls-24{fill:#14a2ff;}</style><clipPath id="clip-path" transform="translate(-193.68 -57.73)"><polygon class="cls-1" points="225.95 160.87 630.95 160.87 817.25 132.09 844.74 220.64 659.24 263.87 697.89 418.3 285.68 418.3 225.95 160.87"/></clipPath></defs><path class="cls-2" d="M257.06,226.06C285.66,195,320.13,7.63,438.25,105.22c61,50.41,163.93-43.29,249.1-10.92C765.57,124,783.17,221.22,775.6,253.13,760.31,317.59,797.83,327.91,842,355.6c69.23,43.44,18.32,196.11-47.08,196.84S333.27,551,333.27,551s-73.32-7.1-112.83-73.88C177.93,405.25,183.18,306.31,257.06,226.06Z" transform="translate(-193.68 -57.73)"/><path class="cls-3" d="M518.1,170.56l-7-.17c2.23,3,2.73,5.82,1.34,8.18s-4.72,4.38-9.69,5.89a98,98,0,0,0-1.41-69.37,93.59,93.59,0,0,0-19.26-29.85A89.6,89.6,0,0,0,453.58,65.1a86.7,86.7,0,0,0-70,0c-1.32.6-2.65,1.22-3.92,1.86h0q-5.79-1.84-11.26-3c-18.33-3.88-31.34-1.2-36.62,7.57-5,8.34-2.29,20.89,7.69,35.53h0c-1.34,2.6-2.55,5.27-3.67,8-.84,2.07-1.6,4.15-2.28,6.27-18.75,1.17-28.79,4.61-32.44,10.86-4.24,7.27,1.56,17,20.1,26.52,2.55,1.31,5.29,2.59,8.17,3.88A95.6,95.6,0,0,0,355.06,218a89.9,89.9,0,0,0,28.56,20.12,86.7,86.7,0,0,0,70,0A89.85,89.85,0,0,0,482.13,218a93.73,93.73,0,0,0,18.89-29c9.15-2,15.17-5.08,17.56-9.18C520.25,177,520,173.9,518.1,170.56Zm-21.46,15.37a131.58,131.58,0,0,1-22.56,1.91,316.39,316.39,0,0,1-46.24-3.25q2.1-4.78,4.11-9.83a123.8,123.8,0,0,0,15,4.26,73,73,0,0,0,14.95,1.74c10.47,0,18-3.16,21.68-9.31a16.55,16.55,0,0,0,1.49-3.22h-5.34c-.09.17-.18.34-.28.5-2.75,4.57-8.9,6.93-17.53,6.93a68.09,68.09,0,0,1-14-1.64,117,117,0,0,1-14.1-4c1.29-3.36,2.54-6.79,3.75-10.26,3.25-9.38,6-18.67,8.29-27.59a217.19,217.19,0,0,0,33,2.37q10.94,0,22.66-.92a92.75,92.75,0,0,1,1.74,18A91.29,91.29,0,0,1,496.64,185.93ZM385.46,232.48c-2.6-1-3.91-4.87-4.56-8-1-4.88-1.21-11.75-.54-19.85.34-4.09.89-8.45,1.63-13A225.62,225.62,0,0,1,413.42,203c-2.31,4.16-4.65,8-7,11.53-4.45,6.66-8.81,11.81-12.59,14.87C391.45,231.36,388.06,233.47,385.46,232.48Zm30.31-33.82a230.57,230.57,0,0,0-32.93-11.92q.6-3.17,1.3-6.45,4.65,1.11,9.42,2.14c9.32,2,18.62,3.68,27.71,5Q418.57,193.33,415.77,198.66ZM395.62,178.9q-5.4-1.16-10.64-2.42c1.64-7.14,3.66-14.58,6-22.16a205,205,0,0,0,36.47,18.79c-1.48,3.69-3,7.29-4.55,10.77C414,182.53,404.8,180.87,395.62,178.9ZM365.73,82.55A60.13,60.13,0,0,0,369,88.64a81.14,81.14,0,0,0,20.12,21.55,98.25,98.25,0,0,0,10.59,6.88c-3.42,7.79-6.68,16.09-9.67,24.72-.56,1.6-1.1,3.21-1.63,4.81-17.88-12.16-33-26.11-42.94-39.62h0A87.27,87.27,0,0,1,354,94.42q2-2.43,4.12-4.72l.6-.62A89.21,89.21,0,0,1,365.73,82.55Zm76.44-13.47c2.59,1,3.91,4.87,4.56,8,1,4.88,1.21,11.75.53,19.85a204.73,204.73,0,0,1-5,29.66c-3.05-.55-6-1.17-8.94-1.87A124.88,124.88,0,0,1,406,114.84,203.83,203.83,0,0,1,421.19,87c4.45-6.67,8.8-11.82,12.59-14.88,2-1.6,4.63-3.31,7-3.31A3.88,3.88,0,0,1,442.17,69.08ZM432,129.46q4.45,1.08,9.15,1.93c-2.2,8.63-4.9,17.62-8.05,26.69q-1.81,5.25-3.76,10.31a200.11,200.11,0,0,1-36.73-19q1-2.92,2-5.87c2.92-8.43,6.1-16.54,9.43-24.14A129,129,0,0,0,432,129.46Zm46.47-40.38a88.6,88.6,0,0,1,18.16,28.13,90.32,90.32,0,0,1,3.78,11.53c-19.51,1.49-37.38,1-53.36-1.4a211.63,211.63,0,0,0,5-30c.82-9.93.72-21.7-3.13-28.33.89.36,1.78.74,2.67,1.13A84,84,0,0,1,478.44,89.08ZM418.61,63.17A80.9,80.9,0,0,1,435.88,65c-6.65,3-13.44,11.44-18.59,19.16a209.38,209.38,0,0,0-15.52,28.39,92.91,92.91,0,0,1-9.51-6.17,75.17,75.17,0,0,1-19-20.17,52.69,52.69,0,0,1-3.61-6.73,83.5,83.5,0,0,1,10.94-6.9h0c1.56-.82,3.14-1.58,4.75-2.3l.35-.16.08,0,1-.44.28-.12A80.86,80.86,0,0,1,418.61,63.17ZM335.93,74.24c2.75-4.57,8.9-6.92,17.53-6.92a68.73,68.73,0,0,1,14,1.63q2.94.63,6,1.47h0a89.06,89.06,0,0,0-18.4,14.82Q353.32,87,351.69,89c-1.37,1.57-2.67,3.22-3.93,4.89a96.34,96.34,0,0,0-5.56,8.32h0C334.56,90.34,332.27,80.3,335.93,74.24Zm4.67,43c.75-1.81,1.53-3.6,2.37-5.34h0c10.46,13.65,25.87,27.61,43.87,39.72-2.55,8.12-4.73,16.1-6.49,23.75a338.86,338.86,0,0,1-35.87-11.07c-2.24-.84-4.4-1.7-6.48-2.56-1.23-.5-2.44-1-3.63-1.54-.18-1.91-.32-3.84-.36-5.77,0-.93-.05-1.84-.05-2.77s0-2.17.05-3.24a93.37,93.37,0,0,1,3.88-23.46c.38-1.28.79-2.55,1.25-3.81S340.08,118.5,340.6,117.21Zm-15.26,38.71c-16.17-8.25-23.56-16.21-20.25-21.86,2.66-4.57,12.38-7.67,27.25-8.82A95.18,95.18,0,0,0,329,145.08c-.14,2-.21,4-.23,6v.52c0,2,.07,4.05.18,6.06C327.69,157.11,326.5,156.52,325.34,155.92Zm12.27,10.13c2.19.86,4.43,1.72,6.73,2.55a359.45,359.45,0,0,0,35.16,10.57q-.69,3.22-1.28,6.35l-3.11-.77a182.43,182.43,0,0,0-36.84-5.17,90.58,90.58,0,0,1-3.33-14.6Zm3,20-.57-1.44a186.48,186.48,0,0,1,34.2,5l3.13.77c-.79,4.84-1.38,9.46-1.74,13.81-.68,8.24-.73,17.73,1.46,24.51a85,85,0,0,1-18.32-14.56A88.6,88.6,0,0,1,340.6,186.05Zm111,47.08A81.61,81.61,0,0,1,392.94,236c6.27-3.43,12.56-11.31,17.4-18.57,2.5-3.74,5-7.88,7.46-12.36a236.77,236.77,0,0,1,40.72,24.62C456.26,230.92,453.93,232.08,451.55,233.13Zm26.89-18.95A84,84,0,0,1,463,226.93a242,242,0,0,0-42.9-26.25c2.06-4,4.1-8.13,6.08-12.48a352,352,0,0,0,39,3.34c3.15.09,6.21.09,9.17.07a156.66,156.66,0,0,0,20.39-1.43A87.74,87.74,0,0,1,478.44,214.18Z" transform="translate(-193.68 -57.73)"/><path class="cls-4" d="M431.87,290.93,412,537.87s-2.07,14.51,8.58,14.54c17.52,0,87.19.25,87.19.25s-13.19-2.91-13-9.92C494.92,534.47,518,288.6,518,288.6Z" transform="translate(-193.68 -57.73)"/><path class="cls-4" d="M426.36,548.38c17.06.23,83.6,0,87,0-1.3,0-11.31-.26-12.72-8.13a11.27,11.27,0,0,1-.17-2c0-1.54.82-11.31,2.13-26.2,1.18-13.35,2.76-30.82,4.53-50.14,6.86-74.91,16.57-177.8,16.57-177.8l-86.09,2.33L423.54,461.92l-2.76,34.24L418.3,527l-.51,6.42S415.36,548.24,426.36,548.38Z" transform="translate(-193.68 -57.73)"/><polygon class="cls-4" points="29.12 98.83 77.52 302.02 84.15 329.85 106.69 424.5 525.53 424.5 442.44 98.83 29.12 98.83"/><polygon class="cls-5" points="29.12 98.83 22.41 101.17 97.77 431.56 106.69 424.5 29.12 98.83"/><polygon class="cls-5" points="97.77 431.56 514.03 431.56 525.53 424.5 106.69 424.5 97.77 431.56"/><rect class="cls-6" x="437.63" y="548.21" width="90.13" height="3.86" transform="translate(771.71 1042.53) rotate(180)"/><path class="cls-5" d="M420.22,489.16l.56,7,0,.26s58.55,5.87,81.85,15.64c.59-6.7,1.28-14.42,2.05-22.9Z" transform="translate(-193.68 -57.73)"/><path class="cls-5" d="M426.36,548.38c17.06.23,83.6,0,87,0-1.3,0-11.31-.26-12.72-8.13-6.85.37-45,1.65-82.39-13.28l-.51,6.42S415.36,548.24,426.36,548.38Z" transform="translate(-193.68 -57.73)"/><path class="cls-5" d="M285.68,418.3l15.23,63.93h141c-59.63-19.8-87.85-48.76-99.23-63.93Z" transform="translate(-193.68 -57.73)"/><polygon class="cls-7" points="32.27 103.13 92.01 360.56 504.22 360.56 437.28 103.13 32.27 103.13"/><path class="cls-8" d="M310.83,334.64c71.13-12.35,86.67-74.86,216.92-35.89,57.58,17.23,99.38-8.27,128.11-42.1L631,160.87H226l47,202.45C282,348.37,294.24,337.52,310.83,334.64Z" transform="translate(-193.68 -57.73)"/><polygon class="cls-9" points="509.31 360.56 504.22 360.56 505.24 364.49 510.17 363.9 509.31 360.56"/><g class="cls-10"><path class="cls-11" d="M261.44,138.4l42.15,97.52,1.16-.24,125.82-26.47s-59.05-3.05-65.42-7.93c-6-4.61-69.95-60.07-88.08-64.72a7.18,7.18,0,0,0-2.79-.26Z" transform="translate(-193.68 -57.73)"/><path class="cls-12" d="M299.7,256.34c2.94.46,11.73,1.65,23.77,3.05,34.64,4,96.17,9.84,123,5.24,24-4.13,151.13-26.26,239-42.35a141,141,0,0,0-75.08-47c-102.41,18.28-236.31,42.49-253.27,47-27.91,7.49-65,15.21-65,15.21s-.2.93-.37,2.4C291.12,244.69,291,255,299.7,256.34Z" transform="translate(-193.68 -57.73)"/><path class="cls-13" d="M299.7,256.34c2.94.46,11.73,1.65,23.77,3.05,34.64,4,96.17,9.84,123,5.24,24-4.13,151.13-26.26,239-42.35,44.12-8.08,78.35-14.64,84.68-16.64,18.89-6,57.74-24.24,52.81-32.53s-20.47-8.06-25.26-10.89l-.2-.12a62.46,62.46,0,0,0-5.62-3c-9.46-4.43-29.16-10.62-62.47-4.94,0,0-53,9.33-119,21.13-102.41,18.28-236.31,42.49-253.27,47-27.91,7.49-65,15.21-65,15.21s-.2.93-.37,2.4C291.12,244.69,291,255,299.7,256.34Z" transform="translate(-193.68 -57.73)"/><path class="cls-11" d="M299.7,256.34c2.94.46,11.73,1.65,23.77,3.05,3.31-13.65,15.84-20.61,15.84-20.61l-47.63,1.15C291.12,244.69,291,255,299.7,256.34Z" transform="translate(-193.68 -57.73)"/><path class="cls-11" d="M642.35,189a1.45,1.45,0,0,1,1.68,1.23l.27,1.59a1.52,1.52,0,0,1-1.19,1.75,1.46,1.46,0,0,1-1.68-1.23l-.26-1.59A1.51,1.51,0,0,1,642.35,189Z" transform="translate(-193.68 -57.73)"/><path class="cls-11" d="M627.91,191.65a1.47,1.47,0,0,1,1.68,1.24l.27,1.58a1.52,1.52,0,0,1-1.19,1.76A1.47,1.47,0,0,1,627,195l-.26-1.58A1.52,1.52,0,0,1,627.91,191.65Z" transform="translate(-193.68 -57.73)"/><path class="cls-11" d="M649.74,187.68a1.47,1.47,0,0,1,1.68,1.24l.26,1.58a1.51,1.51,0,0,1-1.18,1.76,1.46,1.46,0,0,1-1.68-1.24l-.26-1.58A1.52,1.52,0,0,1,649.74,187.68Z" transform="translate(-193.68 -57.73)"/><path class="cls-11" d="M657.12,186.34a1.46,1.46,0,0,1,1.68,1.24l.27,1.58a1.52,1.52,0,0,1-1.18,1.76,1.46,1.46,0,0,1-1.68-1.24l-.27-1.58A1.52,1.52,0,0,1,657.12,186.34Z" transform="translate(-193.68 -57.73)"/><path class="cls-11" d="M664.51,185a1.46,1.46,0,0,1,1.68,1.23l.26,1.59a1.52,1.52,0,0,1-1.18,1.76,1.47,1.47,0,0,1-1.68-1.24l-.26-1.59A1.51,1.51,0,0,1,664.51,185Z" transform="translate(-193.68 -57.73)"/><path class="cls-11" d="M671.9,183.66h0a1.46,1.46,0,0,1,1.68,1.23l.26,1.59a1.51,1.51,0,0,1-1.18,1.75h0A1.45,1.45,0,0,1,671,187l-.27-1.59A1.52,1.52,0,0,1,671.9,183.66Z" transform="translate(-193.68 -57.73)"/><path class="cls-11" d="M679.28,182.31a1.47,1.47,0,0,1,1.68,1.24l.27,1.58a1.52,1.52,0,0,1-1.19,1.76,1.47,1.47,0,0,1-1.68-1.24l-.26-1.58A1.52,1.52,0,0,1,679.28,182.31Z" transform="translate(-193.68 -57.73)"/><path class="cls-11" d="M686.67,181a1.47,1.47,0,0,1,1.68,1.24l.26,1.58a1.52,1.52,0,0,1-1.18,1.76,1.47,1.47,0,0,1-1.68-1.24l-.27-1.58A1.52,1.52,0,0,1,686.67,181Z" transform="translate(-193.68 -57.73)"/><path class="cls-11" d="M694.05,179.63a1.45,1.45,0,0,1,1.68,1.23l.27,1.59a1.52,1.52,0,0,1-1.19,1.75,1.46,1.46,0,0,1-1.68-1.23l-.26-1.59A1.51,1.51,0,0,1,694.05,179.63Z" transform="translate(-193.68 -57.73)"/><path class="cls-11" d="M701.44,178.28a1.47,1.47,0,0,1,1.68,1.24l.26,1.58a1.51,1.51,0,0,1-1.18,1.76,1.46,1.46,0,0,1-1.68-1.23l-.26-1.59A1.52,1.52,0,0,1,701.44,178.28Z" transform="translate(-193.68 -57.73)"/><path class="cls-11" d="M708.68,177a1.47,1.47,0,0,1,1.68,1.23l.26,1.59a1.52,1.52,0,0,1-1.18,1.76,1.47,1.47,0,0,1-1.68-1.24l-.27-1.58A1.52,1.52,0,0,1,708.68,177Z" transform="translate(-193.68 -57.73)"/><path class="cls-11" d="M716.06,175.63a1.45,1.45,0,0,1,1.68,1.23l.27,1.59a1.52,1.52,0,0,1-1.19,1.75,1.46,1.46,0,0,1-1.68-1.23l-.26-1.59A1.51,1.51,0,0,1,716.06,175.63Z" transform="translate(-193.68 -57.73)"/><path class="cls-11" d="M723.45,174.28a1.47,1.47,0,0,1,1.68,1.24l.26,1.58a1.51,1.51,0,0,1-1.18,1.76,1.46,1.46,0,0,1-1.68-1.24l-.26-1.58A1.52,1.52,0,0,1,723.45,174.28Z" transform="translate(-193.68 -57.73)"/><path class="cls-11" d="M783.82,161.76l8-2.66a62.46,62.46,0,0,1,5.62,3l-12.3,4.09a2.13,2.13,0,0,1-.7.11,2.25,2.25,0,0,1-2.09-1.62A2.36,2.36,0,0,1,783.82,161.76Z" transform="translate(-193.68 -57.73)"/><path class="cls-11" d="M591.93,209.94a2.72,2.72,0,0,0,.49-.05l2.25-.41a2.79,2.79,0,0,0,1.84-1.22A3.05,3.05,0,0,0,597,206l-1.63-9.78a2.86,2.86,0,0,0-3.3-2.42l-2.24.41a2.8,2.8,0,0,0-1.84,1.22,3.05,3.05,0,0,0-.48,2.22l1.63,9.78A2.88,2.88,0,0,0,591.93,209.94Zm.45-.28a2.64,2.64,0,0,1-3-2.23l-1.63-9.78a2.85,2.85,0,0,1,.44-2.05,2.63,2.63,0,0,1,1.7-1.12l2.24-.41a2.63,2.63,0,0,1,3,2.23l1.63,9.78a2.85,2.85,0,0,1-.44,2,2.55,2.55,0,0,1-1.69,1.12Z" transform="translate(-193.68 -57.73)"/><path class="cls-11" d="M577.26,212.61a2.81,2.81,0,0,0,.49-.05l2.24-.41a3,3,0,0,0,2.32-3.44l-1.62-9.78a2.87,2.87,0,0,0-3.3-2.43l-2.25.41a3,3,0,0,0-2.32,3.45l1.63,9.78A2.9,2.9,0,0,0,577.26,212.61Zm.45-.28a2.64,2.64,0,0,1-3-2.23l-1.63-9.78a2.73,2.73,0,0,1,2.13-3.17l2.25-.41a2.63,2.63,0,0,1,3,2.23l1.63,9.78a2.73,2.73,0,0,1-2.13,3.17Z" transform="translate(-193.68 -57.73)"/><path class="cls-11" d="M408.57,231.53a1.46,1.46,0,0,1,1.68,1.23l.27,1.59a1.54,1.54,0,0,1-1.19,1.76,1.48,1.48,0,0,1-1.68-1.24l-.26-1.58A1.51,1.51,0,0,1,408.57,231.53Z" transform="translate(-193.68 -57.73)"/><path class="cls-11" d="M416,230.19a1.46,1.46,0,0,1,1.68,1.23l.26,1.59a1.51,1.51,0,0,1-1.18,1.75,1.45,1.45,0,0,1-1.68-1.23l-.27-1.59A1.52,1.52,0,0,1,416,230.19Z" transform="translate(-193.68 -57.73)"/><path class="cls-11" d="M423.34,228.84a1.47,1.47,0,0,1,1.68,1.24l.27,1.58a1.52,1.52,0,0,1-1.19,1.76,1.47,1.47,0,0,1-1.68-1.24l-.26-1.58A1.52,1.52,0,0,1,423.34,228.84Z" transform="translate(-193.68 -57.73)"/><path class="cls-11" d="M430.73,227.5a1.46,1.46,0,0,1,1.68,1.24l.26,1.58a1.52,1.52,0,0,1-1.18,1.76,1.47,1.47,0,0,1-1.68-1.24l-.26-1.58A1.51,1.51,0,0,1,430.73,227.5Z" transform="translate(-193.68 -57.73)"/><path class="cls-11" d="M438.11,226.16a1.45,1.45,0,0,1,1.68,1.23l.27,1.59a1.54,1.54,0,0,1-1.18,1.76,1.48,1.48,0,0,1-1.69-1.24l-.26-1.59A1.51,1.51,0,0,1,438.11,226.16Z" transform="translate(-193.68 -57.73)"/><path class="cls-11" d="M445.5,224.82a1.46,1.46,0,0,1,1.68,1.23l.26,1.59a1.51,1.51,0,0,1-1.18,1.75,1.46,1.46,0,0,1-1.68-1.23l-.26-1.59A1.51,1.51,0,0,1,445.5,224.82Z" transform="translate(-193.68 -57.73)"/><path class="cls-11" d="M452.89,223.47a1.48,1.48,0,0,1,1.68,1.24l.26,1.58a1.52,1.52,0,0,1-1.18,1.76,1.46,1.46,0,0,1-1.68-1.24l-.27-1.58A1.54,1.54,0,0,1,452.89,223.47Z" transform="translate(-193.68 -57.73)"/><path class="cls-11" d="M460.27,222.13a1.46,1.46,0,0,1,1.68,1.24l.27,1.58a1.54,1.54,0,0,1-1.19,1.76,1.48,1.48,0,0,1-1.68-1.24l-.26-1.58A1.51,1.51,0,0,1,460.27,222.13Z" transform="translate(-193.68 -57.73)"/><path class="cls-11" d="M467.66,220.79a1.46,1.46,0,0,1,1.68,1.23l.26,1.59a1.51,1.51,0,0,1-1.18,1.75,1.45,1.45,0,0,1-1.68-1.23l-.27-1.59A1.52,1.52,0,0,1,467.66,220.79Z" transform="translate(-193.68 -57.73)"/><path class="cls-11" d="M554.69,205a1.46,1.46,0,0,1,1.68,1.23l.26,1.59a1.51,1.51,0,0,1-1.18,1.75,1.46,1.46,0,0,1-1.68-1.23l-.27-1.59A1.52,1.52,0,0,1,554.69,205Z" transform="translate(-193.68 -57.73)"/><path class="cls-11" d="M562.07,203.62a1.47,1.47,0,0,1,1.68,1.24l.27,1.58a1.52,1.52,0,0,1-1.19,1.76h0a1.47,1.47,0,0,1-1.68-1.24l-.26-1.58A1.52,1.52,0,0,1,562.07,203.62Z" transform="translate(-193.68 -57.73)"/><path class="cls-11" d="M569.46,202.28a1.47,1.47,0,0,1,1.68,1.24l.26,1.58a1.52,1.52,0,0,1-1.18,1.76,1.47,1.47,0,0,1-1.68-1.24l-.27-1.58A1.52,1.52,0,0,1,569.46,202.28Z" transform="translate(-193.68 -57.73)"/><path class="cls-11" d="M576.84,200.94a1.45,1.45,0,0,1,1.68,1.23l.27,1.59a1.52,1.52,0,0,1-1.19,1.75,1.46,1.46,0,0,1-1.68-1.23l-.26-1.59A1.51,1.51,0,0,1,576.84,200.94Z" transform="translate(-193.68 -57.73)"/><path class="cls-11" d="M584.23,199.59a1.47,1.47,0,0,1,1.68,1.24l.26,1.58a1.51,1.51,0,0,1-1.18,1.76,1.46,1.46,0,0,1-1.68-1.24l-.26-1.58A1.52,1.52,0,0,1,584.23,199.59Z" transform="translate(-193.68 -57.73)"/><path class="cls-11" d="M591.61,198.25a1.46,1.46,0,0,1,1.68,1.24l.27,1.58a1.52,1.52,0,0,1-1.18,1.76,1.47,1.47,0,0,1-1.69-1.24l-.26-1.58A1.52,1.52,0,0,1,591.61,198.25Z" transform="translate(-193.68 -57.73)"/><path class="cls-11" d="M599,196.91a1.46,1.46,0,0,1,1.68,1.23l.26,1.59a1.52,1.52,0,0,1-1.18,1.76,1.47,1.47,0,0,1-1.68-1.24l-.26-1.59A1.51,1.51,0,0,1,599,196.91Z" transform="translate(-193.68 -57.73)"/><path class="cls-11" d="M606.39,195.57a1.46,1.46,0,0,1,1.68,1.23l.26,1.59a1.51,1.51,0,0,1-1.18,1.75,1.45,1.45,0,0,1-1.68-1.23l-.27-1.59A1.52,1.52,0,0,1,606.39,195.57Z" transform="translate(-193.68 -57.73)"/><path class="cls-11" d="M613.77,194.22a1.47,1.47,0,0,1,1.68,1.24l.27,1.58a1.52,1.52,0,0,1-1.19,1.76,1.47,1.47,0,0,1-1.68-1.24l-.26-1.58A1.52,1.52,0,0,1,613.77,194.22Z" transform="translate(-193.68 -57.73)"/><path class="cls-11" d="M489.37,216.84a1.47,1.47,0,0,1,1.68,1.24l.26,1.58a1.52,1.52,0,0,1-1.18,1.76,1.47,1.47,0,0,1-1.68-1.24l-.27-1.58A1.52,1.52,0,0,1,489.37,216.84Z" transform="translate(-193.68 -57.73)"/><path class="cls-11" d="M496.75,215.5a1.45,1.45,0,0,1,1.68,1.23l.27,1.59a1.52,1.52,0,0,1-1.19,1.75,1.46,1.46,0,0,1-1.68-1.23l-.26-1.59A1.51,1.51,0,0,1,496.75,215.5Z" transform="translate(-193.68 -57.73)"/><path class="cls-11" d="M504.14,214.15a1.47,1.47,0,0,1,1.68,1.24l.26,1.58a1.51,1.51,0,0,1-1.18,1.76,1.46,1.46,0,0,1-1.68-1.23l-.26-1.59A1.52,1.52,0,0,1,504.14,214.15Z" transform="translate(-193.68 -57.73)"/><path class="cls-11" d="M511.52,212.81a1.47,1.47,0,0,1,1.69,1.24l.26,1.58a1.52,1.52,0,0,1-1.18,1.76,1.46,1.46,0,0,1-1.68-1.24l-.27-1.58A1.53,1.53,0,0,1,511.52,212.81Z" transform="translate(-193.68 -57.73)"/><path class="cls-11" d="M518.91,211.47a1.46,1.46,0,0,1,1.68,1.23l.26,1.59a1.52,1.52,0,0,1-1.18,1.76,1.47,1.47,0,0,1-1.68-1.24l-.26-1.58A1.51,1.51,0,0,1,518.91,211.47Z" transform="translate(-193.68 -57.73)"/><path class="cls-11" d="M526.3,210.13a1.46,1.46,0,0,1,1.68,1.23l.26,1.59a1.51,1.51,0,0,1-1.18,1.75,1.45,1.45,0,0,1-1.68-1.23l-.27-1.59A1.52,1.52,0,0,1,526.3,210.13Z" transform="translate(-193.68 -57.73)"/><path class="cls-11" d="M533.68,208.78a1.47,1.47,0,0,1,1.68,1.24l.27,1.58a1.52,1.52,0,0,1-1.19,1.76,1.47,1.47,0,0,1-1.68-1.24l-.26-1.58A1.52,1.52,0,0,1,533.68,208.78Z" transform="translate(-193.68 -57.73)"/><path class="cls-11" d="M541.07,207.44a1.47,1.47,0,0,1,1.68,1.24l.26,1.58a1.52,1.52,0,0,1-1.18,1.76,1.47,1.47,0,0,1-1.68-1.24l-.27-1.58A1.52,1.52,0,0,1,541.07,207.44Z" transform="translate(-193.68 -57.73)"/><path class="cls-11" d="M548.45,206.1a1.46,1.46,0,0,1,1.68,1.23l.27,1.59a1.52,1.52,0,0,1-1.19,1.75,1.46,1.46,0,0,1-1.68-1.23l-.26-1.59A1.51,1.51,0,0,1,548.45,206.1Z" transform="translate(-193.68 -57.73)"/><path class="cls-6" d="M583.76,242c-4.33-.84-5.75-6.6-2.34-9.53s8.1-6,13.52-6.93c11.13-1.91,7.51,16.64,3.82,17.44C596.6,243.46,589.53,243.14,583.76,242Z" transform="translate(-193.68 -57.73)"/><path class="cls-11" d="M592.19,221.58l4,24.29s12,2,30.52-.83c11.32-1.76,18.78-4.59,22.86-6.52a28.63,28.63,0,0,0,3.82-2.08L649.2,211a11.36,11.36,0,0,0-4.35-1.1c-14.8-1.32-50.44,10.45-50.44,10.45Z" transform="translate(-193.68 -57.73)"/><path class="cls-6" d="M644.85,209.88l4.77,28.64a28.63,28.63,0,0,0,3.82-2.08L649.2,211A11.36,11.36,0,0,0,644.85,209.88Z" transform="translate(-193.68 -57.73)"/><path class="cls-6" d="M448.51,185.64s17.76,26.75,21.08,30.74,10.26,6,10.26,6h0l43.92,9s53.74-9.46,65.42-11.81h0c1.06-.22,1.77-.37,2.06-.46,3.54-1,5.14-2.5,4.4-3.46s-84,.53-93.24.75h-.26c-9,.17-9.93-2.14-9.93-2.14L456.5,187.09a4.1,4.1,0,0,0-2.05-1.11A19.18,19.18,0,0,0,448.51,185.64Z" transform="translate(-193.68 -57.73)"/><path class="cls-6" d="M454.45,186c9.65,7.82,36.34,29.38,38.85,30.77,2.69,1.5,77.54,2.58,95.93,2.87h0c1.06-.22,1.77-.37,2.06-.46,3.54-1,5.14-2.5,4.4-3.46s-84,.53-93.24.75-10.19-2.13-10.19-2.13L456.5,187.09A4.1,4.1,0,0,0,454.45,186Z" transform="translate(-193.68 -57.73)"/><path class="cls-6" d="M448.51,185.64s17.76,26.75,21.08,30.74,10.26,6,10.26,6h0a91.93,91.93,0,0,0,22.31-5.93c-9,.17-9.93-2.14-9.93-2.14L456.5,187.09a4.1,4.1,0,0,0-2.05-1.11A19.18,19.18,0,0,0,448.51,185.64Z" transform="translate(-193.68 -57.73)"/><path class="cls-6" d="M304.75,235.68l125.82-26.47s-59.05-3.05-65.42-7.93c-6-4.61-69.95-60.07-88.08-64.72,16.67,16.36,55.37,55.84,54.46,68.69C330.67,217.49,313.4,230.1,304.75,235.68Z" transform="translate(-193.68 -57.73)"/><path class="cls-6" d="M340.09,235.09c-.48-.43-42.6-6.6-69.53,1.2l26.83,10.11,41.92-7.62S342.45,237.24,340.09,235.09Z" transform="translate(-193.68 -57.73)"/></g><polygon class="cls-13" points="409.56 340.38 194.98 340.38 170.94 252.03 385.52 252.03 409.56 340.38"/><polygon class="cls-14" points="382.96 264.77 230.92 264.77 229.5 260.11 381.55 260.11 382.96 264.77"/><polygon class="cls-14" points="385.52 274.71 233.47 274.71 232.05 270.05 384.1 270.05 385.52 274.71"/><polygon class="cls-14" points="388.16 284.66 236.11 284.66 234.69 279.99 386.74 279.99 388.16 284.66"/><polygon class="cls-14" points="391.33 294.6 192.01 294.6 190.6 289.94 389.91 289.94 391.33 294.6"/><polygon class="cls-14" points="394.68 304.54 195.36 304.54 193.94 299.88 393.26 299.88 394.68 304.54"/><path class="cls-14" d="M568.71,367.25c-7.25,0-13.12,6.15-13.12,13.72s5.87,13.72,13.12,13.72,13.13-6.14,13.13-13.72S576,367.25,568.71,367.25Zm0,26.24a12.53,12.53,0,1,1,12-12.52A12.25,12.25,0,0,1,568.71,393.49Z" transform="translate(-193.68 -57.73)"/><path class="cls-14" d="M586.34,384.4l-2.11.79a4.66,4.66,0,0,0-3.3-.18.76.76,0,0,0-.6-.65c-1.94-.41-3.88.63-5.64,1.37s-3.53,1.6-5.28,2.47c.53-.67,1-1.35,1.55-2,.62-.84,1.24-1.7,1.86-2.56a1.94,1.94,0,0,1,.91.14,1,1,0,0,0,.6.57l.14.05a.89.89,0,0,0,1-.43l.07-.1a.84.84,0,0,0,0-.85,24.81,24.81,0,0,1,1.36-2.68c.49-1,1-2.06,1.48-3.07a16.75,16.75,0,0,1,4.76-5.35c.88-.7.14-2.18-.88-1.59-4,2.27-7,6.69-9.72,10.61a.88.88,0,0,0-.84-.65c-3,.19-5.76,1.45-8.69,1.9.21-.68.44-1.35.71-2a.93.93,0,0,0-1-1.36A16.87,16.87,0,0,0,551,387a.89.89,0,0,0,1.52.93,15.17,15.17,0,0,1,9-7c-.23.67-.44,1.34-.62,2a.92.92,0,0,0,.85,1.16c2.79-.18,5.4-1.28,8.13-1.79a.87.87,0,0,0,1.07.73h0a80.3,80.3,0,0,1-5.06,6.51c-.22.25-.44.5-.67.74a28.83,28.83,0,0,0-7.17,5.19.93.93,0,0,0,.62,1.57c2.45-.11,4.64-2.34,6.36-4,.43-.42.85-.85,1.27-1.29.64-.35,1.3-.68,2-1,1.64-.82,3.27-1.64,4.93-2.41,1-.45,2.4-1.27,3.79-1.79-.22.62.33,1.56,1.06,1.27a17.73,17.73,0,0,1,2.66-.81,11.89,11.89,0,0,1,2.54-.33.87.87,0,0,0,1,.42l2.52-.94C587.87,385.78,587.41,384,586.34,384.4Z" transform="translate(-193.68 -57.73)"/><path class="cls-14" d="M419.76,326.07a2.35,2.35,0,0,0-2-1.11H377.24l3.32,2.24a7.58,7.58,0,0,0,4.31,1.3l30.36,0a1.11,1.11,0,0,1,1,1.42l-2.85,10,6.43-11.25A2.59,2.59,0,0,0,419.76,326.07Z" transform="translate(-193.68 -57.73)"/><path class="cls-14" d="M414.06,333.43l.71-2.84a.58.58,0,0,0-.54-.72H386.46l2.94,2a8.6,8.6,0,0,0,4.91,1.54Z" transform="translate(-193.68 -57.73)"/><path class="cls-14" d="M394.22,334.78l1.78,1.66a6.93,6.93,0,0,0,4.72,1.88h12.16l.93-3.79Z" transform="translate(-193.68 -57.73)"/><polygon class="cls-14" points="211.09 332.26 203.23 332.26 198.96 317.04 206.83 317.04 211.09 332.26"/><polygon class="cls-14" points="221.11 332.26 213.24 332.26 208.97 317.04 216.84 317.04 221.11 332.26"/><polygon class="cls-14" points="238.62 332.26 230.75 332.26 226.49 317.04 234.36 317.04 238.62 332.26"/><polygon class="cls-14" points="248.63 332.26 240.77 332.26 236.5 317.04 244.37 317.04 248.63 332.26"/><polygon class="cls-14" points="265.63 332.26 257.77 332.26 253.5 317.04 261.37 317.04 265.63 332.26"/><polygon class="cls-14" points="275.65 332.26 267.78 332.26 263.51 317.04 271.38 317.04 275.65 332.26"/><polygon class="cls-14" points="285.84 332.26 277.97 332.26 273.7 317.04 281.57 317.04 285.84 332.26"/><polygon class="cls-14" points="295.85 332.26 287.98 332.26 283.71 317.04 291.58 317.04 295.85 332.26"/><g id="man_2" data-name="man 2"><path class="cls-15" d="M639.81,533.5s1,17.45-2,17.7c-.4,0-15.42,0-15.42,0l-19.18-.12a6.78,6.78,0,0,1,5.73-6.28c5.61-1.1,15.45-5.12,17.12-14.07S639.81,533.5,639.81,533.5Z" transform="translate(-193.68 -57.73)"/><path class="cls-15" d="M603.31,533.5s1,17.45-2,17.7c-.4,0-15.42,0-15.42,0l-19.18-.12a6.78,6.78,0,0,1,5.73-6.28c5.61-1.1,15.46-5.12,17.12-14.07S603.31,533.5,603.31,533.5Z" transform="translate(-193.68 -57.73)"/><path class="cls-14" d="M683.4,407.05l16.81,6.05s10.69-22.74,13.29-25.83c3-3.53,5.11-30.65,6.45-55.18,1.18-21.45,1.75-40.92,1.75-40.92s-5.72,1.36-9.45,11.45c-6.4,17.3-6.36,51.08-9.92,68.5C700.28,381.15,686.87,405.62,683.4,407.05Z" transform="translate(-193.68 -57.73)"/><path class="cls-16" d="M700.21,413.1c6.4-7.78,10.69-22.74,13.29-25.83,3-3.53,17-23.55,3.9-55-6.44,19.91-1.07,30.77-3.09,42.52S700.79,405.32,700.21,413.1Z" transform="translate(-193.68 -57.73)"/><path class="cls-17" d="M748.72,543.5S750.29,545,754,545c4.21,0,5.29-1.46,5.29-1.46V481.58H748.72Z" transform="translate(-193.68 -57.73)"/><path class="cls-18" d="M690.47,456.43a.78.78,0,0,0,0,.14,61.28,61.28,0,0,0,1.51,7.67,47.17,47.17,0,0,0,4.28,10.87c5.74,10.11,16.61,21.36,42.69,25,1.26.17,2.56.34,3.9.48q3.64.39,7.68.58l.51,0,.51,0c7.59-.2,16.07-1.65,25.54-4,19.43-4.81,32.08-14.73,40.09-26.79h0c.68-1,1.33-2.06,1.94-3.11a68.52,68.52,0,0,0,4.17-8.47c4.44-10.85,6.14-22.55,6.3-33.4a115.1,115.1,0,0,0-3.37-26.2,48.53,48.53,0,0,0-6.18-14.37,40,40,0,0,0-2.36-3.28,35.36,35.36,0,0,0-9.58-8.43c-9.28-5.53-39.81-11-65.66,3.22C694.86,402.64,687.7,435.07,690.47,456.43Z" transform="translate(-193.68 -57.73)"/><path class="cls-18" d="M698.47,478.61c7.59,9.23,14.42,18.69,40.5,21.72q1.89.23,3.9.39,3.64.33,7.68.49h.51l.51,0c7.59-.2,16.07-1.65,25.54-4,19.43-4.81,32.08-14.73,40.09-26.79h0c.68-1,1.33-2.06,1.94-3.11-14.74-3.68-46.22-10.12-77.5-7.49-17,1.43-34.56,3-49.64,4.4C691.5,464.28,696,475.57,698.47,478.61Z" transform="translate(-193.68 -57.73)"/><path class="cls-14" d="M787.74,316.72c-.24-1.05-.5-2.08-.77-3.09-3.73-13.77-9.8-23.76-19.35-25.39-1.19,3.4-12.88,9.06-23.1,8.51-1.12-.06-2.79-1.66-2.81-1.67-8.07-1.19-11.91-5.71-11.53-6.32-.34,0-8.48,2.41-8.48,2.41-7.06,32.27-7.91,50.21.59,96.23,3.1,16.81-1.64,25.94-.59,27,1.84,1.93,22.18,2.48,38.54,3.15l5.78.21c4.77.16,9.21.28,12.81.37a10.65,10.65,0,0,0,10.84-9.27c.52-4,1.05-9.21,1.48-15.09C792.79,371.88,793.22,339.8,787.74,316.72Z" transform="translate(-193.68 -57.73)"/><path class="cls-19" d="M762,289.79l-9.73,8.41-14.8-2.39c.14-1.49.87-7.94,1.51-13.46.52-4.5,1-8.36,1-8.36l17.69-7.4.53-.22c0,.09,0,.19,0,.28,0,.74-.08,1.46-.1,2.17C757.77,281.45,762,289.79,762,289.79Z" transform="translate(-193.68 -57.73)"/><path class="cls-20" d="M721.19,463.62c-49.5,3.72-64.91,3.05-66.65,5.53-10.93,15.65-12,18.35-34.19,49.71-4.23,6-9.23,13-15.2,21.36H582s25-49.79,44.93-83.52c7.88-13.31,15-24.12,19.46-28.39,15.47-14.73,77.1-14.39,77.1-14.39s53.51-1.35,57.72,6.93C782.13,422.65,758.46,460.82,721.19,463.62Z" transform="translate(-193.68 -57.73)"/><path class="cls-15" d="M721.19,463.62c-49.5,3.72-64.91,3.05-66.65,5.53-10.93,15.65-12,18.35-34.19,49.71l6.58-62.16c7.88-13.31,15-24.12,19.46-28.39,15.47-14.73,77.1-14.39,77.1-14.39s53.51-1.35,57.72,6.93C782.13,422.65,758.46,460.82,721.19,463.62Z" transform="translate(-193.68 -57.73)"/><path class="cls-20" d="M785.79,429.44s-1.65,31.33-38.93,34.13c-49.49,3.72-59.7,2.49-62.94,5.65-15.91,15.54-5.4,18.84-42.7,71H617.79s28.6-99,41.55-110.83c15.73-14.39,78.77-14.52,78.77-14.52s44-4.4,48.24,3.89C787.27,420.56,785.79,429.44,785.79,429.44Z" transform="translate(-193.68 -57.73)"/><path class="cls-21" d="M740.29,500.14a51,51,0,0,0,7.94,1.06q1,0,2.13.06h.3l.91,0c7.59-.2,16.07-1.65,25.54-4,25.38-6.29,39.2-21.29,46.2-38.38,4.44-10.86,6.14-22.55,6.3-33.4a115.1,115.1,0,0,0-3.37-26.2,48.8,48.8,0,0,0-6.18-14.37c-.55-.85-1.13-1.69-1.75-2.5C800.14,402.33,748.59,462,740.29,500.14Z" transform="translate(-193.68 -57.73)"/><path class="cls-13" d="M738.62,285.53s1.24,7.7,5.51,11.36l-6.33,7.57s-6.95-8.45-7.63-15.7C730.17,288.76,736.51,285.79,738.62,285.53Z" transform="translate(-193.68 -57.73)"/><path class="cls-13" d="M760.09,285.13s-9.36,11-16,11.76l3.66,10.27s19.78-11.64,19.84-18.92C767.63,288.24,762.22,285.19,760.09,285.13Z" transform="translate(-193.68 -57.73)"/><path class="cls-16" d="M791.15,393.81c-1,13.73.06,19.4-4,23.44,0,0-9.34,2.79-21.45-1.39-5.25-2.13-6.8,2.54-7.23-1.08-2.37-20.25,7.82-28.39,8.59-42.11S777.85,333,777.85,333,792.79,371.88,791.15,393.81Z" transform="translate(-193.68 -57.73)"/><path class="cls-18" d="M813.93,551.17H698.13c5.51-12.59,29.34-22.07,57.9-22.07S808.42,538.58,813.93,551.17Z" transform="translate(-193.68 -57.73)"/><path class="cls-19" d="M754.35,396.55s-7.85,2.16-10.43,3.64-7.74,8.57-6.58,9.68c5.82,5.58,6.71-.6,13.86-2.62,1.3-.37,7.27-7.33,7.27-7.33Z" transform="translate(-193.68 -57.73)"/><polygon class="cls-22" points="554.29 356 542.5 313.38 475.11 313.38 487.28 357.73 487.51 357.73 554.77 357.73 566.78 357.73 566.78 356 554.29 356"/><path class="cls-14" d="M767.63,288.24s13.38,2.27,20.07,9.54,18,66.74,15.2,75.09-25.5,25.3-41.72,32.29c0,0-8-3.76-8.5-10.22,0,0,27.56-24.23,28.84-30.68S767.63,288.24,767.63,288.24Z" transform="translate(-193.68 -57.73)"/><path class="cls-23" d="M758.17,266.65c0,.74-.08,1.46-.1,2.17-3.42,3.86-11.47,12.08-19.08,13.53.52-4.5,1-8.36,1-8.36l17.69-7.4Z" transform="translate(-193.68 -57.73)"/><path class="cls-19" d="M738.12,275.48s21.21,1,21.61-12.8,3.41-23-10.12-24.22-16.31,3.95-17.52,8.53S732.61,274.86,738.12,275.48Z" transform="translate(-193.68 -57.73)"/><path class="cls-15" d="M759.73,262.68s-1.59-18.44-20.48-17.78-10.73-18,5.51-20.77c0,0-1.69,6.58,8.52,7.62C774.72,233.94,761.63,259.75,759.73,262.68Z" transform="translate(-193.68 -57.73)"/></g><path class="cls-6" d="M875.07,529.49l0-38.69c0-11.62-9.11-21.12-20.22-21.11l-85.43.05c-11.12,0-20.21,9.52-20.2,21.14l0,38.69c0,11.61,9.23,21.61,20.35,21.6l85.3-.54C866,550.62,875.07,541.11,875.07,529.49Z" transform="translate(-193.68 -57.73)"/><path class="cls-24" d="M886.32,529.91l0-39.15c0-11.66-9.14-21.19-20.29-21.19l-29.37,0v-8.34a6.87,6.87,0,0,0-6.7-7H804.43a6.47,6.47,0,0,0-4.73,2.06,7,7,0,0,0-2,4.94v8.35h-17a17.43,17.43,0,0,0-1.93.1h-.13c-10.2,1.09-18.22,10.17-18.22,21.1l0,39.14c0,10.09,6.85,18.59,15.92,20.69h0a19.14,19.14,0,0,0,4.37.5h0l85.24,0C877.21,551.12,886.33,541.57,886.32,529.91Zm-84.39-60.3v-8.34a2.55,2.55,0,0,1,2.5-2.61h25.51a2.55,2.55,0,0,1,.74.11,2.61,2.61,0,0,1,1.76,2.5v8.34Z" transform="translate(-193.68 -57.73)"/></svg>