<svg xmlns="http://www.w3.org/2000/svg" viewBox="0 0 578.88 492.4"><defs><style>.cls-1{isolation:isolate;}.cls-2{fill:#00418c;}.cls-3{fill:#ffc7af;}.cls-4{fill:#fbab97;}.cls-5{fill:#ffdfcd;}.cls-6{fill:#35383b;}.cls-7{fill:#fff;}.cls-11,.cls-8{opacity:0.5;}.cls-10,.cls-11,.cls-8{mix-blend-mode:multiply;}.cls-11,.cls-9{fill:#95d0e8;}.cls-12{fill:#005fbb;}.cls-13{fill:#b2b2b2;}.cls-14{fill:none;stroke:#777784;stroke-miterlimit:10;stroke-width:0.37px;stroke-dasharray:0.73 1.46;}</style></defs><g class="cls-1"><g id="Layer_1" data-name="Layer 1"><path class="cls-2" d="M419.47,440.25c12.17-5.48,18.11-2.19,19.32-7.66s-5.63-8.78-13.85-9.69-12.47,3.35-12.17,8.52S419.47,440.25,419.47,440.25Z" transform="translate(-250.56 -58.99)"/><path class="cls-3" d="M498.63,176.14c1.86-1.86,4.07-7.19,0-8.54s-14.33.25-14.33.25l5,17.49Z" transform="translate(-250.56 -58.99)"/><path class="cls-3" d="M482,123.78q-.53.63-1.05,1.29c-4.79,6.1-10,14.13-16.39,22.23-2.36-1.52-4.72-3.07-7.06-4.63-6-4-11.94-8-17.9-12.07,6.52-7.38,11.4-17.14,14.63-21.49,6.83-9.22,12.57-14.85,18-16.88,4.32-1.62,8.46-1,12.83,1.88C495,100.63,487.12,117.5,482,123.78Z" transform="translate(-250.56 -58.99)"/><path class="cls-4" d="M480.94,125.07c-4.79,6.1-10,14.13-16.39,22.23-2.36-1.52-4.72-3.07-7.06-4.63-6-4-11.94-8-17.9-12.07,6.52-7.38,11.4-17.14,14.63-21.49,6.83-9.22,12.57-14.85,18-16.88C479.42,102.68,480.76,114.89,480.94,125.07Z" transform="translate(-250.56 -58.99)"/><path class="cls-3" d="M404.37,551.39c11.81-63.89,30.39-152.8,34.9-177.6.8-4.37,1.76-7.22,2.91-8.21l1.52-1.26h0c.14-.12.28-.25.44-.37l.58-.48q.63-.54,1.41-1.17c6.52-5.46,12.16-10.62,17.95-23,6.08-13,8.24-31.09,15.22-43.75.24-.44.49-.86.76-1.27a42.21,42.21,0,0,1,4.37-5.28,218.93,218.93,0,0,0-22.1-30.69c-14.86-17.28-38.11-33-58.31-44.4-2.56,5.13-4.23,11-5.71,16.47-.17.64-.34,1.28-.52,1.93-6.79,24.33-18.77,49.52-33.56,72,0,0,0,0,0,0-8.38,12.74-13.05,23.84-22.81,34.17,0,0-.27,5.53-.9,14.52-.44,6.17-8.25,33.15-20.17,63.89-17.82,46-43.21,103.51-55.84,134.49Z" transform="translate(-250.56 -58.99)"/><path class="cls-4" d="M441.93,323a25.41,25.41,0,0,1,4.79,3.72c6.34,6.3,4.14,12.89,3.07,20.67A22.91,22.91,0,0,0,451,358c4.57-4.31,8.8-9.52,13.11-18.74,2.69-5.76,4.62-12.51,6.53-19.35C461,320.5,451.48,321.67,441.93,323Z" transform="translate(-250.56 -58.99)"/><path class="cls-3" d="M324.85,403.24c21.24,7.57,49.59-8.76,68.6,3.63,7.47-22.64,14-66.56,15.79-68.26,16.66-15.5,14.18-43.36,6.12-63.47s-8.72-31-12.49-37.55a10.33,10.33,0,0,1-1.12-3.17,222,222,0,0,0-36.51-15.88c-1.38,4.46-32.95,17.2-32.95,17.2-3,48.24-5.72,53.78.56,83C337.62,341,338.8,371.3,324.85,403.24Z" transform="translate(-250.56 -58.99)"/><path class="cls-4" d="M374.22,321.68c.27.51,10.37,13.36,25.24,12.07,8.84-.78,53.46-2.81,69.65-6,2.85-10.94,5.12-22.41,10.2-32.19L467,268.41l-97.25,35h0C369.86,304,371.33,308,374.22,321.68Z" transform="translate(-250.56 -58.99)"/><path class="cls-4" d="M443.7,364.32l-1.52,1.26c-1.15,1-3.55,11.38-4.35,15.75-4.1,1.53-2.58-4-30.67-1.48-15.25,1.36-25.36-4.05-25.75-4.21a112.69,112.69,0,0,0,19.75-.14c1.87-.17,3.91-.4,6.07-.68C418.13,373.35,432.05,370.24,443.7,364.32Z" transform="translate(-250.56 -58.99)"/><path class="cls-3" d="M336.34,282.59c-1.52-7.74-4.83-22.95-4.23-32.43.95-15.12-3-34.54-3.72-41.78-.45-4.62,1.73-16,3-23.63,2.15-13.16,2.89-19.51,8.62-20,8.42-.66,10.73,13.17,14.72,23.3,2.61,6.62,3.3,13.43,4.27,16.59,2.74,8.94,8.54,35.41,8.54,35.41.57,4.89,17.14,31.49,10.19,64.73-5.12,24.51-8.24,29.37-8.24,29.37S339.41,298.22,336.34,282.59Z" transform="translate(-250.56 -58.99)"/><path class="cls-4" d="M354.1,221.29c3.43,12.37,10.28,23.62,17.5,34.1q1.65,2.39,3.33,4.77c-3.26-10.51-7.14-17.75-7.41-20.07,0,0-5.8-26.48-8.54-35.41-1-3.16-1.66-10-4.27-16.59-1.81-4.6-3.24-14.25-6.1-17.19C348.62,189.13,350.07,206.75,354.1,221.29Z" transform="translate(-250.56 -58.99)"/><path class="cls-5" d="M331.76,188.84c4.25,2.34,6.45-2,8-4.32a19.92,19.92,0,0,0,3.44-9.42c.79-6.84-.86-12.23-3.51-12.81s-4.75,1.13-6.09,4.92C332.21,171.18,329.38,187.53,331.76,188.84Z" transform="translate(-250.56 -58.99)"/><path class="cls-6" d="M391.32,331l103.87-14.7c7.13-1,13.47-8,13-17.64l-42.63-222a14.74,14.74,0,0,0-15.26-11.67L345,67c-7.67.52-12.36,11.78-11.07,19l41.22,233.79C376.45,327,383.7,332.05,391.32,331Z" transform="translate(-250.56 -58.99)"/><path class="cls-6" d="M394.05,324.56,497.81,309.9a12.31,12.31,0,0,0,10.57-14.44L468.16,70.68A14.72,14.72,0,0,0,452.91,59l-104.69,7c-7.67.52-12.88,6.77-11.59,14L377.9,313.38C379.2,320.63,386.44,325.64,394.05,324.56Z" transform="translate(-250.56 -58.99)"/><path class="cls-7" d="M445.4,65.28l-18.26,1.26a4.84,4.84,0,0,0-4.14,2.7l-1.83,3.86A4.89,4.89,0,0,1,417,75.81l-28,2a6.36,6.36,0,0,1-5.11-2.07l-3.23-3.55a6.4,6.4,0,0,0-5.13-2.09l-19,1.31-6.44.45c-4.92.33-8.25,4.35-7.43,9l3.22,18,37.32,211.13a9.16,9.16,0,0,0,10.34,7.18L495.14,303a7.9,7.9,0,0,0,6.8-9.26L465.49,89.62l-3.15-17.35a9.44,9.44,0,0,0-9.8-7.48Z" transform="translate(-250.56 -58.99)"/><g class="cls-8"><path class="cls-9" d="M501.94,293.72,498.06,272c-5.65-5.57-27-19.12-35.08-20.11-5.1-.62-6.31,5-2.85,12.63,3.19,7,10.22,12.06,18.51,18.73,5.17,4.15,10.64,13.24,18.11,19.36A7.86,7.86,0,0,0,501.94,293.72Z" transform="translate(-250.56 -58.99)"/></g><g class="cls-10"><path class="cls-11" d="M387.53,290.91c-2.53-9.23-5.31-18.69-9.14-27.48a60,60,0,0,0-5-9l9.81,55.5a9.14,9.14,0,0,0,9.84,7.23A207.09,207.09,0,0,0,387.53,290.91Z" transform="translate(-250.56 -58.99)"/></g><polygon class="cls-12" points="209.74 27.5 216.06 65.19 106.74 74.37 100.31 35.78 209.74 27.5"/><path class="cls-7" d="M374.44,115.47a9.28,9.28,0,0,1,8.51,4.25,9.25,9.25,0,0,0,2-7.65c-1-5.69-6.74-9.92-12.79-9.45S362,108.12,363,113.83a11.32,11.32,0,0,0,4.66,7.14A7.36,7.36,0,0,1,374.44,115.47Z" transform="translate(-250.56 -58.99)"/><path class="cls-12" d="M374.44,115.47a7.36,7.36,0,0,0-6.78,5.5,12.44,12.44,0,0,0,7.31,2.34l1.74-.15a10.11,10.11,0,0,0,6.24-3.44A9.28,9.28,0,0,0,374.44,115.47Z" transform="translate(-250.56 -58.99)"/><path class="cls-12" d="M377.33,110c.35,2-.94,4.42-3,4.59s-4.22-2-4.58-4a3.32,3.32,0,0,1,3.17-3.89A4.2,4.2,0,0,1,377.33,110Z" transform="translate(-250.56 -58.99)"/><polygon class="cls-7" points="190.54 49.59 143.19 53.4 141.88 46.12 189.24 42.37 190.54 49.59"/><polygon class="cls-13" points="166.74 58.08 144.36 59.91 143.82 56.92 166.21 55.1 166.74 58.08"/><path class="cls-6" d="M378.44,154a2.25,2.25,0,0,1-2.11,2.63,2.77,2.77,0,0,1-3-2.17,2.25,2.25,0,0,1,2.12-2.63A2.79,2.79,0,0,1,378.44,154Z" transform="translate(-250.56 -58.99)"/><path class="cls-12" d="M382.56,177a2.28,2.28,0,0,1-2.11,2.65,2.76,2.76,0,0,1-3-2.16,2.27,2.27,0,0,1,2.12-2.64A2.75,2.75,0,0,1,382.56,177Z" transform="translate(-250.56 -58.99)"/><line class="cls-14" x1="126.33" y1="100.8" x2="128.77" y2="114.43"/><polygon class="cls-6" points="140.68 150.22 133.97 150.94 133.2 146.66 139.91 145.95 140.68 150.22"/><polygon class="cls-6" points="139.74 144.97 133.03 145.69 133.2 146.66 139.91 145.95 139.74 144.97"/><path class="cls-6" d="M394.54,229.7l-5.93.68-.05-.29a2.73,2.73,0,0,1,2.45-3.2h0a3.19,3.19,0,0,1,3.48,2.52Z" transform="translate(-250.56 -58.99)"/><path class="cls-6" d="M391.86,225a1.07,1.07,0,0,1-1,1.25,1.25,1.25,0,0,1-1.37-1,1.08,1.08,0,0,1,1-1.26A1.27,1.27,0,0,1,391.86,225Z" transform="translate(-250.56 -58.99)"/><polygon class="cls-13" points="161.19 97.56 135.04 99.97 135.48 102.45 161.63 100.02 161.19 97.56"/><polygon class="cls-6" points="192.8 85.95 133.47 91.26 134.46 96.79 193.78 91.38 192.8 85.95"/><polygon class="cls-13" points="165.28 120.31 139.15 122.89 139.59 125.37 165.72 122.76 165.28 120.31"/><polygon class="cls-12" points="196.87 108.46 137.59 114.17 138.58 119.71 197.85 113.89 196.87 108.46"/><polygon class="cls-13" points="181.74 148.59 146.69 152.65 147.13 155.09 182.18 151.02 181.74 148.59"/><polygon class="cls-12" points="185.53 139.48 145.14 144.05 146.12 149.51 186.51 144.9 185.53 139.48"/><polygon class="cls-13" points="185.43 169.04 150.4 173.21 150.84 175.66 185.87 171.47 185.43 169.04"/><polygon class="cls-12" points="189.22 159.88 148.85 164.61 149.83 170.07 190.2 165.3 189.22 159.88"/><path class="cls-12" d="M469.63,241.5l-65.82,9.56a8.7,8.7,0,0,0-7.31,10.18l0,.18a8.71,8.71,0,0,0,9.84,7l65.78-9.73a8.7,8.7,0,0,0,7.33-9.94h0A8.71,8.71,0,0,0,469.63,241.5Z" transform="translate(-250.56 -58.99)"/><polygon class="cls-13" points="211.33 144.8 196.86 146.55 197.3 148.99 211.76 147.23 211.33 144.8"/><polygon class="cls-12" points="215.12 135.68 195.31 137.94 196.29 143.4 216.1 141.1 215.12 135.68"/><polygon class="cls-13" points="215.02 165.24 200.57 167.11 201.01 169.55 215.46 167.67 215.02 165.24"/><polygon class="cls-12" points="218.81 156.08 199.02 158.5 200 163.96 219.79 161.5 218.81 156.08"/><path class="cls-3" d="M354.1,221.29s18.57,41.54,21,47.51c5.6,13.88,7.73,18.85,7.58,43.88,0,4.72-.34,23.4,8.9,32.73,5.42,5.47-24.8-10.71-24.8-10.71Z" transform="translate(-250.56 -58.99)"/><path class="cls-3" d="M499.54,225.65c6.07-.14,12.27,0,15.1,4.85s-1.27,14.69-4.67,17.21c-4.15,3.08-14.85,2.29-20-2-2.71-2.25-4.32-5.2-3.07-10.07A13.05,13.05,0,0,1,499.54,225.65Z" transform="translate(-250.56 -58.99)"/><path class="cls-4" d="M486.91,235.67a13.17,13.17,0,0,1,3.5-6.29c-1.21,2.67-3.31,10.1,2,13.92,8.71,6.24,18.07,4,17.54,4.41-4.15,3.08-14.85,2.29-20-2C487.27,243.49,485.66,240.54,486.91,235.67Z" transform="translate(-250.56 -58.99)"/><path class="cls-5" d="M489.2,243.6s-2.34-5.4,2.22-15c0,0,7-2.17,11.77,2.26s.5,13.24-3.65,13.91A23.08,23.08,0,0,1,489.2,243.6Z" transform="translate(-250.56 -58.99)"/><path class="cls-3" d="M494.34,200.81c7.71-1.93,12.09-2.73,17.39,1.84s1.14,18.48-.06,20.31c-3.42,5.28-14.62,6-22.64,2.77-4.24-1.69-7.31-4.47-7.38-10.21C481.52,205.27,490.9,201.67,494.34,200.81Z" transform="translate(-250.56 -58.99)"/><path class="cls-4" d="M481.65,215.52a13.43,13.43,0,0,1,2.22-7.82c-1.18,4.66.05,10.51,3.74,12.86,13.85,8.81,24.32,2,24.06,2.4-3.42,5.28-14.62,6-22.64,2.77C484.79,224,481.72,221.26,481.65,215.52Z" transform="translate(-250.56 -58.99)"/><path class="cls-5" d="M488,223.85s-4.4-5.07-2-16.71c0,0,7.52-4.37,14.54-1.06s4.65,14,0,15.93A30.78,30.78,0,0,1,488,223.85Z" transform="translate(-250.56 -58.99)"/><path class="cls-3" d="M482.28,174.28c6.31-5.16,12.88-8.48,19.32-5.94s7.62,18.63,7.19,21c-1.23,6.86-14,12.85-22.45,12.85-4.45,0-8.23-1.62-10.34-7.52C472.22,184.15,479.47,176.57,482.28,174.28Z" transform="translate(-250.56 -58.99)"/><path class="cls-4" d="M475.72,183.77c-.84,4.93,4.91,13,8.62,13.62,18,2.77,24.58-8.77,24.45-8-1.23,6.86-14,12.85-22.45,12.85-4.45,0-8.23-1.62-10.34-7.52A16.65,16.65,0,0,1,475.72,183.77Z" transform="translate(-250.56 -58.99)"/><path class="cls-5" d="M490.31,178.15c-9.33,1.31-12,4.84-12,4.84,2,13.39,9,16.69,9,16.69s5.67-.12,10.38-6.13C502.86,186.94,499.65,176.83,490.31,178.15Z" transform="translate(-250.56 -58.99)"/><path class="cls-12" d="M425.84,551.39c.23-1.35.45-2.66.68-3.88,2.54-13.52,3.81-32,5.08-52.84a325.56,325.56,0,0,1,5.76-43c3.76-20.78,1.18-21.95,1.18-21.95-5.08,5.08-60.71-5.08-78.59-13.92-24.24-12-33.59-19.12-33.59-19.12s-5.38.27-9.19,10.1-11.62,42.35-19.24,53.41-20.32,38.08-38.1,70a152.71,152.71,0,0,0-9.27,21.14Z" transform="translate(-250.56 -58.99)"/><path class="cls-2" d="M410.91,450.28c1,20.53-8.51,50.05-12.8,69.52-2.5,11.33-3.91,21.63-6,31.59h33.71c.23-1.35.45-2.66.68-3.88,2.54-13.52,3.81-32,5.08-52.84a325.56,325.56,0,0,1,5.76-43c3.76-20.78,1.18-21.95,1.18-21.95-4,4-39.43-1.47-63-8.29.83.55,1.7,1.06,2.51,1.65C395.08,435.48,410.31,437.54,410.91,450.28Z" transform="translate(-250.56 -58.99)"/><g class="cls-8"><path class="cls-9" d="M345.86,98.8l4.54,25.63c7.29-3.93,14.52-8,21.71-12.11,25.57-14.67,53.43-27.64,75.78-47.21l-2.49.17-18.26,1.26a4.84,4.84,0,0,0-4.14,2.7l-1.83,3.86A4.89,4.89,0,0,1,417,75.81l-28,2a6.36,6.36,0,0,1-5.11-2.07l-3.23-3.55a6.4,6.4,0,0,0-5.13-2.09l-19,1.31-6.44.45c-4.92.33-8.25,4.35-7.43,9Z" transform="translate(-250.56 -58.99)"/></g><path class="cls-3" d="M587.28,300.05a136.36,136.36,0,0,1-25.67-.87C546.18,297.36,532.46,285,532.46,285s-5.11,6.94-8.8,12.84c-1,1.59-1.9,3.12-2.56,4.4-3.13,6-5.46,8.89-12.64,12.08s-16.65,1.06-14.63-6.37c1-3.62,5.48-13.2,10.27-22.41,2-3.89,4.07-7.72,5.94-11,.7-1.25,1.37-2.42,2-3.49h0c1.9-3.2,3.43-5.49,4.24-6.16a8.45,8.45,0,0,1,1-.78c6.56-4.54,15.71-2.25,20.3-.36.49.21,1.22.54,2.12,1l.33.16c4.64,2.27,13.51,7,20.64,11,5.57,3.2,10.07,6,10.69,7.05C574.43,288,587.28,300.05,587.28,300.05Z" transform="translate(-250.56 -58.99)"/><path class="cls-4" d="M503,287.54c-4.55,9-8.36,17.44-9.17,20.44-2,7.43,7.46,9.55,14.64,6.37s9.51-6,12.63-12.08a92.85,92.85,0,0,1,5-8.14A142.74,142.74,0,0,0,503,287.54Z" transform="translate(-250.56 -58.99)"/><path class="cls-3" d="M502.11,378.63c9.94,11.31,23.31,35.61,49.57,43.59s42.5,8,53.24,22.75c3.65,5,15.51,21.45,29.58,40.94,0,0,15.6,29.48,33,59.89h133.4c-27.38-33.72-59.83-72.06-95.18-111.64-22.82-25.56-27.77-37.67-34-47.29-7.76-12-12.85-42.48-40-82.68-7.43-11-28.28-24.48-33.82-25.45a86.36,86.36,0,0,0-9.34-.93c-2.61-.14-4.68-.2-5.16-.3h0s-13.42-10.72-24.06-12.6a75,75,0,0,0-13.64-.68,24.81,24.81,0,0,0-5.68.68,1.23,1.23,0,0,0-.23.08l.06,0,.16.09.24.13c.1.05.2.12.33.2l.22.12c4.24,2.41,20.18,11.55,17,10.8l-1.11-.3c-7.38-2.15-14.51-7.95-22.42-4.34-.71.32-1.34.63-1.89.91a10.72,10.72,0,0,0-3.64,2.58c-.71,1,.29,1.38.29,1.38-2.17-.45-5-.86-8.1-1.21h0c-3.4-.38-7.18-.66-10.92-.8-2.67-.11-5.33-.14-7.8-.06-4.05.14-3.87,3.12-1.81,6.5a25,25,0,0,0,3.68,4.56c2.63,2.62,5.81,4.79,8.29,5.22a14.64,14.64,0,0,1,3.93,1.57.05.05,0,0,0,0,0,44.74,44.74,0,0,1,7.3,5.49c3.09,2.75,6.21,5.94,9.07,9,1.7,1.79,3.29,3.52,4.75,5.05a60.29,60.29,0,0,1,7.65,10.69c2.62,4.69,4.59,9.9,3.76,13.95-1.32,6.38-.22,7.65-1.68,8.16-1,5.38-4.45,11.79-12.26,10.41a42.72,42.72,0,0,1-7.84-2.43,108.58,108.58,0,0,1-21.71-11.65c-6.76-5-30.83-10-38.87-9.92s-19.92,11-4,24.65S492.18,367.35,502.11,378.63Z" transform="translate(-250.56 -58.99)"/><path class="cls-4" d="M630.1,476a75.24,75.24,0,0,1-4.7-6.54c-4.23-7.19-18.19-31.68-23.9-37.92-10-10.88-42-20.17-49-23.45-7.41-3.48-20.54-8.24-30.34-17.63-7.78-7.46-17.06-16-26.6-21-4.71-2.48-11-3.29-16-5.11-2.82-1-5.71-1.84-8.61-2.58,12.36,7.3,23.06,7.59,31.2,16.84,9.94,11.32,23.31,35.61,49.57,43.6s42.49,8,53.24,22.75c3.51,4.84,14.65,20.25,28,38.79C632,481.19,631,478.61,630.1,476Z" transform="translate(-250.56 -58.99)"/><path class="cls-5" d="M462.44,335.37c13.84.51,21.35,12.37,16.62,19.36-4.63,6.84-16.39.77-20.49-1.79s-3.88-7.6-3.64-9.27C455.44,340.2,458.82,335.24,462.44,335.37Z" transform="translate(-250.56 -58.99)"/><path class="cls-4" d="M512.06,271.08c2.38,1.16,5.62,2.73,8.92,4.3,2.41,1.13,4.83,2.28,7,3.26,6.82,3.13,23.16,11,27,13.15.63.34.91.54.8.54a2.36,2.36,0,0,1-.8-.54c-3.1-2.48-14.14-13.16-22.52-19.16-.37-.26-.73-.53-1.09-.77-7.3-5-11.07-7.05-14-7.73Z" transform="translate(-250.56 -58.99)"/><path class="cls-3" d="M551.44,322.81c-.11,4.35.12,8.43.12,8.43s-3.54-5-6.42-8.63c-1.62-2.05-3-3.69-3.5-3.83-1.3-.42-12.53-7.39-18.39-15,0,0-9.55-5.72-22.81-18.06-2.69-2.5-8.24-3.32-17.26-10.06-3.16-2.36-8.29-2.36-15.66-6a15.87,15.87,0,0,1-7-7.11,18.79,18.79,0,0,1-2.25-8.95c.22-3.65,12.1-2.24,19-1.31s12.93,2.58,16.77,4.67,14.6,5.5,18.18,7.24c2.86,1.38,9,6.17,16.64,11,2,1.25,3.86,2.5,5.6,3.7,8.48,5.87,24.37,12.47,24.37,12.47s-6.23,20.41-7,26A54.3,54.3,0,0,0,551.44,322.81Z" transform="translate(-250.56 -58.99)"/><path class="cls-5" d="M458.23,252.87a39.7,39.7,0,0,0,10.47.39c2.86-.35,7.82-.69,6.72-1.28-2.46-1.33-12.41-2.17-16.09-1.68C457.48,250.54,456,252.31,458.23,252.87Z" transform="translate(-250.56 -58.99)"/><path class="cls-4" d="M570.52,285.66c-.45-.32-5.39-3.92-10.14-7.15l-3.64-2.45c-5.3-3.58-13.06-8.76-15.87-10.5l-.21-.13a2,2,0,0,0-.34-.19,3,3,0,0,0-.4-.22l-.06,0-.1-.24.33.16a23.81,23.81,0,0,1,5.69-.68c2.71,1.82,7,4.77,9.82,7.07,1.3,1.08,3.16,2.78,5.13,4.66C565.14,280.18,570.09,285.22,570.52,285.66Z" transform="translate(-250.56 -58.99)"/><path class="cls-4" d="M599.47,289.48c-.35-.26-6.11-4.5-10.37-7.58-1.64-1.18-3.57-2.74-5.59-4.39.48.09,2.54.16,5.16.3C592.91,282.19,599,289,599.47,289.48Z" transform="translate(-250.56 -58.99)"/><path class="cls-12" d="M647.73,520.76c2.95,5.16,8,15.06,12.91,25h168.8c-19.61-20.45-54.07-56-62.44-61.76-11.87-8.22-27.18-19-30.84-25.35s-19.53-21.24-29.63-34.22c-4-5.2-12-16.81-18.81-12-11,7.77-66.44,44-70.09,55,0,0,.88,11.33,7.27,18.63S640.43,508,647.73,520.76Z" transform="translate(-250.56 -58.99)"/><path class="cls-2" d="M647.73,520.76c2.95,5.16,8,15.06,12.91,25h168.8C822,538,812.29,528,802.75,518.26l-6.53.2c-21.9.61-43.47-.13-65.32-1.4-18.38-1.07-34-3.09-51.95-7.6-22.74-5.71-51.34-25-54.91-49.95-3.45,3.26-5.77,6-6.41,7.92,0,0,.88,11.33,7.27,18.63S640.43,508,647.73,520.76Z" transform="translate(-250.56 -58.99)"/><path class="cls-4" d="M562,351.26V360s-3.89-11.31-6.14-14.86a77.11,77.11,0,0,1-8.4,8.72c-4.2,3.55-10.66,3.23-17.12.64a16,16,0,0,1-3.17-1.79,42.72,42.72,0,0,0,7.84,2.43c7.81,1.38,11.23-5,12.26-10.41,1.46-.51.36-1.78,1.68-8.16.83-4.05-1.14-9.26-3.76-13.95-1.62-2.05-3-3.69-3.5-3.83-1.3-.42-12.53-7.39-18.39-15,0,0-9.55-5.72-22.81-18.06-2.69-2.5-8.24-3.32-17.26-10.06-3.16-2.36-8.29-2.36-15.66-6a15.87,15.87,0,0,1-7-7.11c9,9,16.59,9,21.66,9.27,5.5.32,13.25,7.42,17.12,8.72a9,9,0,0,1,1.16.49c3.68,1.76,10.67,6.84,15.9,11.35a.05.05,0,0,0,0,0c1.34,1.17,2.56,2.29,3.58,3.31,4.7,4.71,7.75,8.23,12.79,11.17.85.49,1.74,1,2.72,1.43,4.86,2.32,11.38,8.77,16,14.51a52.15,52.15,0,0,1,4.37,6.16C559.36,335.12,562,347.07,562,351.26Z" transform="translate(-250.56 -58.99)"/></g></g></svg>