<svg id="Layer_1" data-name="Layer 1" xmlns="http://www.w3.org/2000/svg" viewBox="0 0 548.02 491.47"><defs><style>.cls-1{opacity:0.25;}.cls-2{fill:#4db6ed;}.cls-3{fill:#fff;}.cls-4{fill:#1d4dd7;}.cls-5{fill:#2082ff;}.cls-6{fill:#c4e1f8;}.cls-7{fill:#2e4882;}.cls-8{fill:#1d39d7;}.cls-9{opacity:0.38;}.cls-10{fill:#a3b2ce;}.cls-11{fill:#69b6ed;}</style></defs><g class="cls-1"><path class="cls-2" d="M279.8,359.27c-19.16-44.07-17.7-96.43.12-141.06,19-47.51,58.37-84.57,102.43-110.58C459.94,61.81,556,46.91,642.9,70.6c22.44,6.12,44.51,14.85,63,29S739,133.7,743.49,156.52c3.08,15.81,1.22,32.18,3.36,48.15C755.33,268,814.8,297.51,814,361.42c-.49,39.93-27.77,67.89-66,92.72C714.55,475.91,370.63,568.19,279.8,359.27Z" transform="translate(-265.99 -59.46)"/></g><path class="cls-2" d="M318.3,345.93c0,.36.08.7.13,1.06,5.09,43.72,14.52,77,25.95,102.33L368.85,460,350,459.83h-.54c14.26,27.59,30.84,44.34,45.68,54.5a96.88,96.88,0,0,0,24.7,12.37c.45.15.9.3,1.34.43,1.11.35,2.18.64,3.2.91l12.43-1.16c.09-.6.16-1.19.23-1.78.05-.38.1-.76.13-1.13s.12-1,.17-1.48c6.36-58.33-18.57-100.46-47.26-128.89a1.85,1.85,0,0,0-.28-.28,219.29,219.29,0,0,0-30.11-24.74l-3.42,14.69-3.63-19.35a217.64,217.64,0,0,0-33.55-17.69Z" transform="translate(-265.99 -59.46)"/><polygon class="cls-3" points="51.91 286.74 52.44 287.53 85.54 336.88 86.14 337.75 95.16 351.21 95.47 351.65 124.24 394.55 124.28 394.61 171.18 464.51 171.88 465.56 173 467.22 174.08 467.12 172.98 465.45 171.35 463.03 125.07 394.05 124.21 392.77 53.09 286.77 52.7 286.19 51.91 286.74"/><rect class="cls-3" x="343.68" y="383.48" width="0.84" height="38.54" transform="translate(-435.17 474.25) rotate(-63.8)"/><rect class="cls-3" x="338.2" y="375.34" width="0.84" height="30.21" transform="translate(-427.18 462.53) rotate(-63.81)"/><rect class="cls-3" x="389.73" y="393.31" width="0.84" height="60.75" transform="translate(-272.88 -53.01) rotate(-0.94)"/><path class="cls-2" d="M443.17,535.79s-27.22,18.1-72.46-.62l12.55-8.37-21.89,4.1c-17.9-9-38.26-23.69-60.58-47l4.79-3.19-6.64,1.24q-5.65-6-11.48-12.76a163.49,163.49,0,0,1,29.83-3.41L328,476.57l-4.19-10.9C360.35,465.86,415.08,477,443.17,535.79Z" transform="translate(-265.99 -59.46)"/><rect class="cls-3" x="365.75" y="416.01" width="0.95" height="169.87" transform="translate(-501.36 593.61) rotate(-68.02)"/><rect class="cls-3" x="307.74" y="488.21" width="21.11" height="0.88" transform="translate(-376.21 33.64) rotate(-14.21)"/><rect class="cls-3" x="315.06" y="493.71" width="24.87" height="0.88" transform="translate(-405.41 69.42) rotate(-18.43)"/><path class="cls-4" d="M618.14,162.47V541.35a9.57,9.57,0,0,1-9.58,9.58H422.33a9.59,9.59,0,0,1-9.59-9.58V162.47a9.58,9.58,0,0,1,9.59-9.58H608.56A9.57,9.57,0,0,1,618.14,162.47Z" transform="translate(-265.99 -59.46)"/><path class="cls-5" d="M630.4,162.47V541.35a9.57,9.57,0,0,1-9.58,9.58H434.58a9.58,9.58,0,0,1-9.58-9.58V162.47a9.57,9.57,0,0,1,9.58-9.58H620.82A9.57,9.57,0,0,1,630.4,162.47Z" transform="translate(-265.99 -59.46)"/><path class="cls-6" d="M616.29,201.75V502.06c0,6.12-4.64,11.07-10.36,11.07H449.47c-5.72,0-10.36-4.95-10.36-11.07V201.75c0-6.11,4.64-11.07,10.36-11.07H605.93C611.65,190.68,616.29,195.64,616.29,201.75Z" transform="translate(-265.99 -59.46)"/><path class="cls-7" d="M553.58,171.15H501.82a.93.93,0,0,1,0-1.85h51.76a.93.93,0,0,1,0,1.85Z" transform="translate(-265.99 -59.46)"/><path class="cls-3" d="M607.93,515.35H447.47a13.09,13.09,0,0,1-12.85-13.29V201.75a13.1,13.1,0,0,1,12.85-13.29H607.93a13.09,13.09,0,0,1,12.85,13.29V502.06A13.09,13.09,0,0,1,607.93,515.35ZM447.47,192.9a8.65,8.65,0,0,0-8.41,8.85V502.06a8.66,8.66,0,0,0,8.41,8.86H607.93a8.66,8.66,0,0,0,8.41-8.86V201.75a8.65,8.65,0,0,0-8.41-8.85Z" transform="translate(-265.99 -59.46)"/><path class="cls-8" d="M699.3,545.19c0,2.86-21,5.19-46.93,5.19s-46.94-2.33-46.94-5.19a.88.88,0,0,1,0-.16V531h93.82v14A.63.63,0,0,1,699.3,545.19Z" transform="translate(-265.99 -59.46)"/><ellipse class="cls-5" cx="386.38" cy="471.67" rx="46.93" ry="5.19"/><path class="cls-8" d="M710.39,528.26c0,2.86-21,5.19-46.93,5.19s-46.94-2.33-46.94-5.19a.4.4,0,0,1,0-.15v-14h93.81v14A.63.63,0,0,1,710.39,528.26Z" transform="translate(-265.99 -59.46)"/><ellipse class="cls-5" cx="397.47" cy="454.74" rx="46.93" ry="5.19"/><path class="cls-8" d="M699.3,511.33c0,2.87-21,5.19-46.93,5.19s-46.94-2.32-46.94-5.19a.77.77,0,0,1,0-.15v-14h93.82v14A.57.57,0,0,1,699.3,511.33Z" transform="translate(-265.99 -59.46)"/><ellipse class="cls-5" cx="386.38" cy="437.82" rx="46.93" ry="5.19"/><path class="cls-8" d="M715.94,494.41c0,2.86-21,5.19-46.94,5.19s-46.93-2.33-46.93-5.19a.88.88,0,0,1,0-.16v-14h93.82v14A.58.58,0,0,1,715.94,494.41Z" transform="translate(-265.99 -59.46)"/><ellipse class="cls-5" cx="403.01" cy="420.89" rx="46.93" ry="5.19"/><path class="cls-2" d="M707.23,480.35c0,1.93-17.11,3.49-38.23,3.49s-38.23-1.56-38.23-3.49,17.12-3.49,38.23-3.49S707.23,478.42,707.23,480.35Z" transform="translate(-265.99 -59.46)"/><g class="cls-9"><path class="cls-10" d="M630.18,310.45V445.2H512.81c-4.57,0-8.31-3.15-8.31-7V317.46c0-3.85,3.74-7,8.31-7Z" transform="translate(-265.99 -59.46)"/></g><path class="cls-8" d="M420.08,231.57a40,40,0,1,0,48.07,29.9A40,40,0,0,0,420.08,231.57Zm40.47,31.68A32.22,32.22,0,1,1,421,239.39l.87-.21a32.26,32.26,0,0,1,38.48,23.21C460.41,262.68,460.48,263,460.55,263.25Z" transform="translate(-265.99 -59.46)"/><path class="cls-2" d="M460.33,262.39c.08.29.15.57.22.86A32.22,32.22,0,1,1,421,239.39l.87-.21A32.25,32.25,0,0,1,460.33,262.39Z" transform="translate(-265.99 -59.46)"/><path class="cls-8" d="M433.43,294.91l-1.54-5.86a17.5,17.5,0,0,1-9.55-.23l.38-4.26a16,16,0,0,0,9,.31c4.13-1.08,6.29-4.19,5.42-7.5s-3.61-4.57-8.37-5.19c-6.53-.77-10.89-2.49-12.21-7.54-1.26-4.82,1.21-9.38,6.32-11.64l-1.54-5.87,3.61-.94,1.47,5.63a15.91,15.91,0,0,1,8.08.06l-.45,4.21a14.49,14.49,0,0,0-7.83-.06c-4.47,1.17-5.46,4.28-4.85,6.61.79,3,3.34,4,8.94,4.73,6.62.87,10.43,3.1,11.78,8.27,1.2,4.59-.87,9.72-6.59,12.28l1.58,6Z" transform="translate(-265.99 -59.46)"/><rect class="cls-4" x="514.84" y="300.1" width="201.61" height="134.75" rx="6.79" transform="translate(965.31 675.5) rotate(180)"/><rect class="cls-3" x="263.93" y="323.01" width="37.57" height="10.29" rx="1.84"/><rect class="cls-3" x="308.56" y="323.01" width="37.57" height="10.29" rx="1.84"/><rect class="cls-3" x="353.19" y="323.01" width="37.57" height="10.29" rx="1.84"/><rect class="cls-3" x="397.82" y="323.01" width="37.57" height="10.29" rx="1.84"/><rect class="cls-3" x="386.34" y="343.14" width="49.05" height="10.29" rx="2.18"/><path class="cls-3" d="M538.49,339.87V326.35a5.36,5.36,0,0,1,5.36-5.35H570.1a5.36,5.36,0,0,1,5.36,5.35v13.52a5.37,5.37,0,0,1-5.36,5.36H543.85A5.37,5.37,0,0,1,538.49,339.87Zm5.36-17.44a3.92,3.92,0,0,0-3.92,3.92v13.52a3.92,3.92,0,0,0,3.92,3.92H570.1a3.92,3.92,0,0,0,3.92-3.92V326.35a3.92,3.92,0,0,0-3.92-3.92Z" transform="translate(-265.99 -59.46)"/><path class="cls-3" d="M695.15,331.24a.66.66,0,0,1,.19-.46,15.16,15.16,0,0,0,0-21.42.66.66,0,0,1,0-.92.64.64,0,0,1,.92,0,16.45,16.45,0,0,1,0,23.26.66.66,0,0,1-.92,0A.7.7,0,0,1,695.15,331.24Z" transform="translate(-265.99 -59.46)"/><path class="cls-3" d="M691.89,312.62a.68.68,0,0,1,.19-.46.67.67,0,0,1,.93,0A11.19,11.19,0,0,1,693,328a.65.65,0,0,1-.93-.92,9.87,9.87,0,0,0,0-14A.68.68,0,0,1,691.89,312.62Z" transform="translate(-265.99 -59.46)"/><path class="cls-3" d="M688.77,324.06a.62.62,0,0,1,.19-.46,5,5,0,0,0,0-7.06.65.65,0,0,1,.92-.92,6.31,6.31,0,0,1,0,8.9.66.66,0,0,1-.92,0A.65.65,0,0,1,688.77,324.06Z" transform="translate(-265.99 -59.46)"/><path class="cls-8" d="M720.9,159.76a51.95,51.95,0,1,0,36.58,63.71A51.94,51.94,0,0,0,720.9,159.76Zm26.8,61.07a41.82,41.82,0,1,1-30.57-51.57l1.13.29A41.86,41.86,0,0,1,748,219.72C747.89,220.09,747.8,220.46,747.7,220.83Z" transform="translate(-265.99 -59.46)"/><path class="cls-2" d="M748,219.72c-.09.37-.18.74-.28,1.11a41.81,41.81,0,1,1-30.57-51.58l1.13.3A41.86,41.86,0,0,1,748,219.72Z" transform="translate(-265.99 -59.46)"/><path class="cls-8" d="M697.25,240.37l1.85-7.65c-4.38-1.13-8.59-3.59-10.78-6.13l3-4.63a20.88,20.88,0,0,0,10.12,5.89c5.38,1.3,9.76-.93,10.8-5.24s-1.32-7.46-6.38-11.08c-7-4.9-10.92-9.53-9.32-16.12,1.51-6.29,7.14-10,14.38-9.43l1.84-7.65,4.7,1.14-1.78,7.34a20.81,20.81,0,0,1,9.21,5l-3.1,4.54a18.88,18.88,0,0,0-8.92-4.88c-5.83-1.41-8.87,1.54-9.6,4.57-.95,3.94,1.37,6.59,7.3,10.9,7,5.07,10,10,8.39,16.7-1.45,6-7,10.58-15.08,10l-1.9,7.87Z" transform="translate(-265.99 -59.46)"/><path class="cls-11" d="M588.86,318.23l36.48,24.71,29.2-31.28L640.83,313c-.17-.94-.37-1.87-.56-2.81l-.29-1.4q-.06-.35-.15-.69l-1.05-4.06A88.75,88.75,0,0,0,623,273.13a86.35,86.35,0,0,0-25.66-21.87,83.56,83.56,0,0,0-31.14-10,80.55,80.55,0,0,0-31.56,2.6A78.34,78.34,0,0,0,507.4,258a75.57,75.57,0,0,0-19.06,22.66,73,73,0,0,0-8.56,27.28,70.29,70.29,0,0,1,13-24.31,67.56,67.56,0,0,1,20.55-16.76,64.7,64.7,0,0,1,24.42-7.28,61.81,61.81,0,0,1,24.3,2.63,59.54,59.54,0,0,1,20.5,11.28A56.87,56.87,0,0,1,596.43,291c3.34,6.54,4.92,13.65,5.9,20.55.21,1.52.49,5.42.49,5.42Z" transform="translate(-265.99 -59.46)"/><path class="cls-3" d="M675.91,177.94a18.32,18.32,0,0,1,8.31,8.71h0a18.36,18.36,0,0,1,8.31-8.73h0a18.23,18.23,0,0,1-8.31-8.71h0A18.28,18.28,0,0,1,675.91,177.94Z" transform="translate(-265.99 -59.46)"/><path class="cls-3" d="M713.11,249.4a10.58,10.58,0,0,1,4.83,5.06h0a10.65,10.65,0,0,1,4.83-5.07h0a10.67,10.67,0,0,1-4.83-5.06h0A10.65,10.65,0,0,1,713.11,249.4Z" transform="translate(-265.99 -59.46)"/><path class="cls-3" d="M396.61,256.75a10.44,10.44,0,0,1,4.77,5h0a10.57,10.57,0,0,1,4.78-5h0a10.49,10.49,0,0,1-4.78-5h0A10.44,10.44,0,0,1,396.61,256.75Z" transform="translate(-265.99 -59.46)"/></svg>