<svg id="Layer_1" data-name="Layer 1" xmlns="http://www.w3.org/2000/svg" viewBox="0 0 75.24 94.55"><defs><style>.cls-1{fill:#1d39d7;}</style></defs><path class="cls-1" d="M82.69,134.77c7.54,0,15.08,0,22.62,0,2.15,0,3.56-.8,3.86-3.06.34-2.57-1-4.05-3.77-4.08-5.28,0-10.56-.08-15.84,0-1.7,0-2.4-.4-2.3-2.22a70.24,70.24,0,0,0,0-7.54c-.07-1.59.55-2,2-2,3.77.08,7.54,0,11.31,0,4.59,0,6.61-1.37,8.16-5.6q7.68-21,15.28-42a17.08,17.08,0,0,0,1.07-6.14c-.07-5,0-9.89,0-14.83-.06-4.55-2.68-7.21-6.94-7.19-4,0-6.52,2.76-6.62,7.24a13.48,13.48,0,0,0,0,2c1.06,9.76-1.22,18.88-5.08,27.76A2.51,2.51,0,0,1,103.67,79C93.45,79,83.22,79,73,79c-2,0-3.66.4-4.68,2.28-1.82,3.39.3,6.79,4.39,6.81,9,.06,17.92,0,26.89,0,2.81,0,2.81,0,1.85,2.67-2.49,7-2.5,7-9.78,6.1-12.1-1.53-24.25-1.25-36.39-1.16-4.5,0-6.18,2.43-5.08,6.75.79,3.08,1.64,6.15,2.47,9.21.94,3.46,1.94,4.27,5.47,4.29,6,0,11.9.1,17.84,0,1.91,0,2.5.54,2.36,2.41a49.49,49.49,0,0,0,0,6.78c.13,1.93-.41,2.62-2.46,2.56-5.11-.15-10.22-.06-15.33,0-2.95,0-4.32,1.24-4.27,3.69,0,2.26,1.47,3.44,4.3,3.45C68,134.78,75.32,134.77,82.69,134.77Z" transform="translate(-49.88 -40.23)"/></svg>