<svg id="Layer_1" data-name="Layer 1" xmlns="http://www.w3.org/2000/svg" viewBox="0 0 84.75 88.53"><defs><style>.cls-1{fill:#1d39d7;}</style></defs><path class="cls-1" d="M117.87,92.83a56.46,56.46,0,0,0-12.14-3.59c-11.1-1.81-22.27-1.37-33.4-.47A49.72,49.72,0,0,0,56.1,93.31a13.58,13.58,0,0,0-7.79,8,60.89,60.89,0,0,0-3.18,21c13.2,12.49,70,12.64,84.73.17a64.72,64.72,0,0,0-2.62-19.63C125.83,98,122.65,94.77,117.87,92.83Z" transform="translate(-45.12 -43.24)"/><path class="cls-1" d="M76,78.14c7.49,9.13,14.64,10.7,23.32-.31,3.92-5,4.41-10.76,4.37-16.16.13-1.86.23-3.21.32-4.55.34-4.82-1.87-8.37-6-11-6.65-4.3-16.81-3.71-22.84,1.32-2.48,2.07-4.08,4.64-4,7.81.1,4.93,0,9.88,1,14.77A18.45,18.45,0,0,0,76,78.14Z" transform="translate(-45.12 -43.24)"/></svg>