<svg id="Layer_1" data-name="Layer 1" xmlns="http://www.w3.org/2000/svg" viewBox="0 0 105.05 62.19"><defs><style>.cls-1{fill:#2082ff;}</style></defs><path class="cls-1" d="M106.87,91.27a33.45,33.45,0,0,0-7.73-2.52c-7.06-1.27-14.17-1-21.24-.33a29.32,29.32,0,0,0-10.33,3.19,9.15,9.15,0,0,0-4.95,5.63,46.88,46.88,0,0,0-2,14.73c8.4,8.76,44.54,8.87,53.9.12a49.38,49.38,0,0,0-1.67-13.78A10.07,10.07,0,0,0,106.87,91.27Z" transform="translate(-34.98 -56.4)"/><path class="cls-1" d="M69.87,87.9c1.49-.44,3-1,4.86-1.64a13.39,13.39,0,0,0-6-3.36c-7.27-2.17-14.63-2-22-.72a32,32,0,0,0-4.88,1.51c-3.25,1.11-5,3.55-5.83,7a58.91,58.91,0,0,0-1,8.77,2.85,2.85,0,0,0,.89,2.07,47.48,47.48,0,0,0,22.52,4.15c.32-1.89.61-3.34.8-4.8C60.11,94.13,63.61,89.77,69.87,87.9Z" transform="translate(-34.98 -56.4)"/><path class="cls-1" d="M139.44,92.21c-.67-4.93-3.3-7.86-7.85-9.21-7.48-2.22-15-2-22.57-.81a20.49,20.49,0,0,0-5.69,1.94,5.81,5.81,0,0,0-2.69,2.17c2.24.81,4.28,1.52,6.3,2.29a12.79,12.79,0,0,1,8.47,10.19c.44,2.24.91,4.49,1.41,7A48.13,48.13,0,0,0,140,101.11,48.46,48.46,0,0,0,139.44,92.21Z" transform="translate(-34.98 -56.4)"/><path class="cls-1" d="M80.21,81C85,87.37,89.52,88.47,95,80.74c2.49-3.48,2.81-7.55,2.78-11.34.08-1.31.14-2.26.2-3.2a8.3,8.3,0,0,0-3.78-7.72,12,12,0,0,0-14.53.92,7.15,7.15,0,0,0-2.56,5.48,63.08,63.08,0,0,0,.64,10.37A13.56,13.56,0,0,0,80.21,81Z" transform="translate(-34.98 -56.4)"/><path class="cls-1" d="M53.54,78.9a4.35,4.35,0,0,0,5.58,0,11.69,11.69,0,0,0,5-7.89c.27-1.76.37-3.55.54-5.33.42-3.33-.4-6.11-3.31-7.82a9.12,9.12,0,0,0-10.46.31,6.12,6.12,0,0,0-2.83,5.56c.08,2.2.24,4.41.44,6.6A11.62,11.62,0,0,0,53.54,78.9Z" transform="translate(-34.98 -56.4)"/><path class="cls-1" d="M116,78.91a4.35,4.35,0,0,0,5.57,0,11.18,11.18,0,0,0,4.61-6.4,35.78,35.78,0,0,0,.84-9.69A5.53,5.53,0,0,0,126,59.92c-2.06-3-6.44-4.25-10.3-2.94s-5.26,3.64-5.17,8.53a33.32,33.32,0,0,0,.44,4.89A11.67,11.67,0,0,0,116,78.91Z" transform="translate(-34.98 -56.4)"/></svg>