<svg id="Layer_1" data-name="Layer 1" xmlns="http://www.w3.org/2000/svg" viewBox="0 0 59.03 105.83"><defs><style>.cls-1{fill:#2082ff;}</style></defs><path class="cls-1" d="M117,79.88c0-.75-.26-.89-1.11-.89q-28.4,0-56.8,0c-.8,0-1.08.13-1.07.85q0,19.36,0,38.71c0,.68.19.88,1,.88,9.46,0,18.93,0,28.4,0s18.93,0,28.4,0c.88,0,1.17-.14,1.16-.93Q117,99.2,117,79.88Zm-11.26,20.38c0,2.32,0,4.64,0,6.95,0,3.64-3.21,6.33-7.57,6.34q-9.56,0-19.11,0c-4.33,0-7.53-2.69-7.56-6.26,0-2.37,0-4.74,0-7.11,0-.61.17-.81,1-.8,5.43,0,10.86,0,16.29,0s10.68,0,16,0C105.56,99.37,105.75,99.59,105.74,100.26Z" transform="translate(-57.99 -34.58)"/><path class="cls-1" d="M59.2,72.55q14.11,0,28.21,0,14.34,0,28.67,0c.69,0,.93-.13.91-.75,0-1.78,0-3.57,0-5.36-.06-2.63-2.51-4.6-5.67-4.62-.79,0-1.59,0-2.37,0s-1.06-.17-1.06-.87c0-6.55,0-13.1,0-19.65,0-4-3.29-6.75-8.1-6.75q-12.55,0-25.12,0c-5,0-8.26,2.71-8.26,6.86V60.79c0,.21,0,.41,0,.61s-.14.45-.53.44H63.77c-3.32,0-5.73,2-5.75,4.79,0,1.64,0,3.28,0,4.91C58,72.67,57.81,72.55,59.2,72.55ZM70.69,41.1c0-1.79,1.46-2.94,3.65-3h25.3c2.62,0,3.94,1.09,3.94,3.23,0,6.55,0,13.1,0,19.65,0,.68-.23.86-1,.83-1.3,0-2.61,0-3.91,0-.31,0-.6,0-.74-.29-1.26-2.68-3.9-3.9-7-4.51A16.61,16.61,0,0,0,81,58a7,7,0,0,0-3.83,3.39c-.18.39-.45.46-.89.46-1.61,0-3.22,0-4.82,0-.61,0-.77-.16-.77-.65C70.69,54.5,70.67,47.8,70.69,41.1Z" transform="translate(-57.99 -34.58)"/><path class="cls-1" d="M116,125.86c-9.47,0-18.93,0-28.4,0H84.82c-8.62,0-17.24,0-25.86,0-.73,0-1,.14-1,.79.07,1.31,0,2.62,0,3.93.08,2.58,2.42,4.56,5.51,4.57q24,0,47.89,0c3.12,0,5.49-2,5.53-4.64,0-1.26,0-2.52,0-3.78C117,126,116.78,125.86,116,125.86Z" transform="translate(-57.99 -34.58)"/><path class="cls-1" d="M59,78q14.25,0,28.49,0h15.83c4.28,0,8.56,0,12.83,0,.62,0,.86-.12.83-.67a18.21,18.21,0,0,1,0-2.86c.09-.81-.28-.94-1.16-.94q-28.35,0-56.69,0h-.37c-.58-.07-.8.1-.78.62a21.75,21.75,0,0,1,0,3C57.94,77.9,58.25,78,59,78Z" transform="translate(-57.99 -34.58)"/><path class="cls-1" d="M116,120.42q-14.25,0-28.49,0H58.87c-.66,0-.91.1-.87.7.06.92,0,1.86,0,2.79s-.22,1,1.17,1H115.8a2.29,2.29,0,0,1,.37,0c.61.07.85-.11.82-.66a25.36,25.36,0,0,1,0-3C117,120.55,116.76,120.42,116,120.42Z" transform="translate(-57.99 -34.58)"/><path class="cls-1" d="M77.83,137.22c0-1,0-1-1.14-1H75.42c-2.62,0-2.62,0-2.45,2.19l0,.22a2.35,2.35,0,0,0,2.45,1.76,2.26,2.26,0,0,0,2.37-1.91c0-.3,0-.6,0-.9h0Z" transform="translate(-57.99 -34.58)"/><path class="cls-1" d="M100.1,136.25a2.24,2.24,0,0,0-.45,0c-2.71,0-2.71,0-2.48,2.27a1.81,1.81,0,0,0,0,.23,2.12,2.12,0,0,0,1.56,1.54,2.59,2.59,0,0,0,2.57-.5c1.13-.95.81-2.2.62-3.29C101.86,135.94,100.74,136.36,100.1,136.25Z" transform="translate(-57.99 -34.58)"/></svg>