<svg id="Layer_1" data-name="Layer 1" xmlns="http://www.w3.org/2000/svg" viewBox="0 0 88.55 98.14"><defs><style>.cls-1{fill:#2082ff;}</style></defs><path class="cls-1" d="M43.6,117.19a4.55,4.55,0,0,1-.32-2.48c0-6.41.15-12.83-.05-19.23s4.34-10.3,9.66-10.27q28.1.2,56.19,0c5.72,0,9.41,4.25,9.32,9.82-.11,6.7,0,13.41,0,20.11a4.66,4.66,0,0,1-.17,1.93C116.47,117.61,46.54,117.72,43.6,117.19Zm16-9.37c3.73,2,6.8,1.72,8.73-.79a6.36,6.36,0,0,0,.16-7.67c-1.89-2.72-4.61-3-8.93-1-4.19-2-7-1.72-8.92,1a6.62,6.62,0,0,0,.23,7.69C52.93,109.61,55.77,109.88,59.56,107.82Z" transform="translate(-43.23 -38.43)"/><path class="cls-1" d="M122.57,103.09c0-2.66-.06-5.32,0-8,0-.92,1-1.38,1.53-2,1.88-2.05,1.9-2.93,0-4.93L84.73,46.57c-2-2.07-2.63-2.06-4.62,0q-5.3,5.57-10.55,11.14a3.69,3.69,0,0,0-1.12,1.65c6.63,7.09,13.34,14.26,20,21.34-.33.91-.87.8-1.32.8-3.46,0-6.92,0-10.37,0a3.23,3.23,0,0,1-2.52-1.26c-3.77-4-7.58-8.09-11.38-12.12-.48-.5-.86-1.14-1.62-1.37a10.19,10.19,0,0,0-2.44,2.29c-1.35,1.44-1.36,2.46,0,4,2,2.27,4.14,4.49,6.21,6.75.32.35.79.61.8,1.23-.21.63-.76.48-1.21.5a17.81,17.81,0,0,0-2.07,0c-5.49,1.07-8.09-2.87-10.2-7-1.73-3.36-1-6.88,1.53-9.69C57,61.35,60.32,58,63.6,54.5q6.08-6.42,12.18-12.82c1.93-2,4.13-3.38,7-3.24a9.05,9.05,0,0,1,6.17,3.19c3.29,3.44,6.56,6.91,9.83,10.36,9.87,10.41,19.7,20.87,29.62,31.22,3,3.12,4.26,6.54,2.77,10.84a4.82,4.82,0,0,1-.55,1.17c-2.13,3.06-4.87,5.5-7.44,8.09Z" transform="translate(-43.23 -38.43)"/><path class="cls-1" d="M118.17,127.28c.68,4.35-3,8.88-7.13,9.24-.48,0-1,0-1.45,0q-28.52,0-57,0a8.82,8.82,0,0,1-7.47-3.51,8.57,8.57,0,0,1-1.75-5.78Z" transform="translate(-43.23 -38.43)"/></svg>