<svg id="Layer_1" data-name="Layer 1" xmlns="http://www.w3.org/2000/svg" viewBox="0 0 93.94 91.55"><defs><style>.cls-1{fill:#2082ff;}</style></defs><path class="cls-1" d="M87.47,133.25c-7,0-14,0-21.07,0-1.23,0-1.51-.38-1.49-1.57.08-3.5,0-7,0-10.49,0-.91-.16-1.24-1.17-.93-4.19,1.27-8.41,2.45-12.61,3.68a8.27,8.27,0,0,1-9.09-3.23,8.51,8.51,0,0,1,0-9.81c7-9.88,14.08-19.73,21.09-29.61a16.29,16.29,0,0,1,3.35-3.85,11.07,11.07,0,0,1,6.79-2.28c9.5,0,19,0,28.49,0a10.83,10.83,0,0,1,9.12,4.8q10,14,19.92,28c1.38,2,3,3.73,3.48,6.27,1.08,6.1-4.53,11.38-10.36,9.69-4.25-1.22-8.51-2.42-12.75-3.69-.91-.27-1.2-.18-1.18.88,0,3.58,0,7.17,0,10.75,0,1-.26,1.34-1.28,1.33-7.12,0-14.23,0-21.34,0ZM71,118.32l.68.3c4.36,1.48,8.75,2.84,13,4.48a7.6,7.6,0,0,0,5.72-.07c4.46-1.63,9-3.09,13.49-4.63,0-.11,0-.18-.08-.19-.44-.18-.89-.34-1.32-.54-3-1.4-5.08-3.57-5.29-7.09a7.6,7.6,0,0,1,4.27-7.7,8.8,8.8,0,0,1,7.44-.15c.83.3,1.13.19,1.12-.79,0-5.09,0-10.18,0-15.27,0-1.11-.26-1.22-1.25-.88C102.23,88,95.59,90.2,89,92.45a4.42,4.42,0,0,1-3,0c-6.65-2.26-13.32-4.46-20-6.7-.62-.2-1.08-.38-1.08.6q0,7.89,0,15.79c0,.81.3.88.94.66a19.74,19.74,0,0,1,2.25-.62,8,8,0,0,1,5.46,14.94C72.8,117.55,72,117.87,71,118.32Z" transform="translate(-40.53 -41.72)"/><path class="cls-1" d="M73.27,56.72c0-8.21,6.4-14.95,14.29-15a14.91,14.91,0,1,1-14.29,15Z" transform="translate(-40.53 -41.72)"/></svg>