<svg id="Layer_1" data-name="Layer 1" xmlns="http://www.w3.org/2000/svg" viewBox="0 0 72.48 100.6"><defs><style>.cls-1{fill:#2082ff;}</style></defs><path class="cls-1" d="M93.92,38c-1.28.43-2.57.83-3.85,1.23-4.79,1.49-19.57,6.44-24.26,8.24-.58.22-1,.63-1,1.09C74.4,47,94.6,42.73,104.31,41.15,104,40.78,102.21,35.19,93.92,38Z" transform="translate(-51.26 -37.2)"/><path class="cls-1" d="M123.59,118.31c-1.78-11-3.26-22-4.86-32.95q-2.46-16.81-4.91-33.64a9.7,9.7,0,0,0-1.8-4.66A8.9,8.9,0,0,0,103,43.54L55.9,51.18a15.94,15.94,0,0,0-2,.45c-2,.6-2.58,1.5-2.59,3.7a34.49,34.49,0,0,0,.46,5.07L62,130.87a25,25,0,0,0,.66,3.32c.95,3.29,1.85,4,5,3.46,16-2.58,31.9-5.23,47.86-7.74A9.85,9.85,0,0,0,123.59,118.31Zm-7.51,2.12c-3.85,1.19-7.72,2.39-11.8,2.2-6.75-.33-10.53-4.31-10.75-11.49-.16-5.24,0-10.49,0-15.73,0-6.45,0-12.91,0-19.36a43.15,43.15,0,0,0-.19-4.83c-.57-4.59-2.62-6.69-6.55-6.86-4.51-.2-6.82,1.52-8,6a15.84,15.84,0,0,0-.45,2.36c-.31,3,.08,3.43,3,3.69a9,9,0,0,0,1.72,0c2.19-.17,3.19.87,3,3.2a25.36,25.36,0,0,0,0,3c.12,2.14-.92,2.88-2.79,2.73-.57,0-1.16.07-1.72,0-2.5-.27-3.36.92-3.33,3.51.09,9.47.06,18.95,0,28.43,0,4.21-.09,4.3-4.15,4.28-8.41,0-7.11,1.11-7.18-7.1s0-16.53,0-24.8c0-3.52,0-3.66-3.62-4.27-1.66-.29-2.36-1-2.32-2.68a27.64,27.64,0,0,0,0-3c-.16-2.26.7-3.46,2.93-3.28,2.66.21,3.24-1.33,3.08-3.74a21.49,21.49,0,0,1,.9-7.15,14.32,14.32,0,0,1,9.64-10.3,26.44,26.44,0,0,1,17,0c6.35,2,10.2,7.44,10.46,15,.21,5.84.05,11.69.05,17.54h0c0,5,0,10.08,0,15.12a27.45,27.45,0,0,0,.29,4.81c.63,3.43,2,4.35,5.22,3.94,4.3-.54,4.3-.54,5.84,3.73.34.94.73,1.87,1,2.82A1.61,1.61,0,0,1,116.08,120.43Z" transform="translate(-51.26 -37.2)"/></svg>