<svg id="Layer_1" data-name="Layer 1" xmlns="http://www.w3.org/2000/svg" viewBox="0 0 77.13 95.27"><defs><style>.cls-1{fill:#2082ff;}</style></defs><path class="cls-1" d="M123.62,105.62a14.45,14.45,0,0,0-8.25-9.8A44.69,44.69,0,0,0,106,92.51a95.88,95.88,0,0,0-35.46-.38,38.34,38.34,0,0,0-12.19,4.26c-2.45,1.34-4.68,3-5.81,5.8a53.3,53.3,0,0,0-3.5,23.48c1.37,2,3.08,2.42,4.67,3.06a90.56,90.56,0,0,0,42.66,6,88,88,0,0,0,26.25-6.59c2.29-1,3.58-2.4,3.41-5.07C125.68,117.18,125.23,111.32,123.62,105.62Z" transform="translate(-48.94 -39.86)"/><path class="cls-1" d="M94,47.12a18,18,0,0,0-12.25-.35c-6.48,2-9.66,6.7-9.39,13.81a105.94,105.94,0,0,0,.8,10.85,21.34,21.34,0,0,0,9.67,15.36,7.67,7.67,0,0,0,9.3-.1,21.44,21.44,0,0,0,9.34-14.59c.49-3,.59-6,.84-8.66,0-1.28,0-2.18,0-3.09C102.47,53.59,99.94,49.49,94,47.12Z" transform="translate(-48.94 -39.86)"/><path class="cls-1" d="M63.66,70.5a5.68,5.68,0,0,0,5.56.8c1.07-1.5.61-3,.55-4.51-.11-2.41-.38-4.82-.49-7.23C68.89,50.17,75,43.65,84.46,43.45c2.29-.05,4.59-.13,6.87,0,7.91.58,13.57,6.45,13.7,14.29.06,3.31-.26,6.63-.36,10,0,1.17-.54,2.42.63,3.68a5.34,5.34,0,0,0,5.63-1.25,17.67,17.67,0,0,0,.47-6.23c-.45-1.83-2.28-1.68-2.75-3.57,0-.48,0-1.53,0-2.58-.29-10.35-7.5-17.51-18-17.85-2.44-.08-4.89-.09-7.33,0A18,18,0,0,0,65.68,56.87c-.1,1.35,0,2.71,0,4.15l-2.84,2.45C62.85,66.11,62.77,68.36,63.66,70.5Z" transform="translate(-48.94 -39.86)"/></svg>