<svg id="Layer_1" data-name="Layer 1" xmlns="http://www.w3.org/2000/svg" viewBox="0 0 107.53 73.09"><defs><style>.cls-1{fill:#2082ff;}</style></defs><path class="cls-1" d="M33.74,58.08a9.84,9.84,0,0,1,6-5.11A35.56,35.56,0,0,1,63,52.85c5.26,1.76,6.54,3.75,6.54,9.52,0,5,0,10,0,15,0,1.41-.42,2-1.74,2.24A21.92,21.92,0,0,0,59.07,83a6.58,6.58,0,0,1-3.37.77c-6,.45-11.94.14-17.59-2.4-.67,2.59-.48,3.19,1.75,4.26,3.85,1.85,8,2.24,12.14,2.29h2.67c.11.21.25.36.23.47-.69,3.92-.69,3.92-4.54,3.83A32.37,32.37,0,0,1,38,89.6c-.85,2.29.2,3.47,2,4.32,3.95,1.89,8.16,2.19,12.4,2.17,1.22,0,2.25-.29,2.27,1.7s-.35,2.7-2.28,2.64c-4.92-.14-9.76-.6-14.36-2.74-.89,2.36.2,3.53,2,4.36a27.38,27.38,0,0,0,12.41,2.18c1.46,0,2.28,0,2.26,2s-.67,2.19-2.18,2.19a38.64,38.64,0,0,1-11.55-1.59,12.2,12.2,0,0,1-7.16-5.2Zm18.12-2.84c-4.37,0-8.39.46-12.15,2.32-.81.4-1.87.84-1.84,1.89,0,.89,1,1.37,1.76,1.68a30.51,30.51,0,0,0,24,0c.81-.32,1.93-.79,1.84-1.86s-1.16-1.4-2-1.81C59.69,55.63,55.66,55.31,51.86,55.24Zm13.55,9.87a37.75,37.75,0,0,1-27.48,0c-.37,2.77-.37,3.12,1.88,4.07a29.9,29.9,0,0,0,23.72.08A3,3,0,0,0,65.41,65.11ZM38,73.23c-.36,2.65-.23,3.27,1.92,4.16a30.23,30.23,0,0,0,23.68,0c1.73-.7,2.62-2,1.79-4.11A37,37,0,0,1,38,73.23Z" transform="translate(-33.74 -50.96)"/><path class="cls-1" d="M141.26,91.66c-1.72,3.38-4.39,4.42-8,4.36-10.78-.19-21.57-.13-32.35,0-2,0-2.62-.53-2.64-2.73s.84-2.65,2.76-2.63c8.71.1,17.41,0,26.12.06,1.36,0,2.19,0,2.34-2a5.56,5.56,0,0,1,5.27-5.33c1.4-.16,1.57-.71,1.57-1.92,0-5-.06-10,0-14.95,0-1.35-.22-2-1.69-2.13-3-.34-4.82-2.27-5.18-5.41-.17-1.44-.55-1.89-1.93-1.88q-19.79.06-39.56,0c-1.24,0-1.87.14-1.9,1.82-.06,3.43-2.22,5.78-5.46,5.9-1.74.07-1.79.89-1.77,2.24,0,3.24-.08,6.47,0,9.7.09,2.48-1.51,1.73-2.69,1.78s-2.45.47-2.4-1.78c.14-6,0-11.89,0-17.84,0-4.68,2.3-7,6.84-7q23.76,0,47.53,0c1.82,0,3.65.1,5.47,0,3.53-.23,6.12,1.13,7.57,4.61Z" transform="translate(-33.74 -50.96)"/><path class="cls-1" d="M58.52,103.19c0-3.58.14-7.18,0-10.75a6.64,6.64,0,0,1,4.11-6.78c5.65-2.81,11.65-3.21,17.75-2.66A25.28,25.28,0,0,1,90.6,85.86a7,7,0,0,1,3.79,6.76q-.18,10.75,0,21.51c0,3.21-1.21,5.51-3.85,6.71a32.77,32.77,0,0,1-28.21,0c-2.63-1.19-4-3.4-3.86-6.67C58.66,110.54,58.52,106.86,58.52,103.19Zm17.9-7.85c4.16-.1,8.27-.5,12.08-2.47.73-.37,1.68-.75,1.67-1.73s-1-1.38-1.69-1.7a30.38,30.38,0,0,0-24-.12c-.8.32-1.9.75-1.88,1.85s1.1,1.45,1.9,1.84C68.31,94.87,72.34,95.25,76.42,95.34ZM90.22,105a37.12,37.12,0,0,1-25.95.59c-.53-.18-1.24-1.09-1.66-.12a2.25,2.25,0,0,0,.29,2.46,5.46,5.46,0,0,0,1.83,1.31,30.62,30.62,0,0,0,23.48,0A3.07,3.07,0,0,0,90.22,105Zm0-8.17a36.63,36.63,0,0,1-25.91.62c-.54-.18-1.22-1.06-1.69-.13a2.25,2.25,0,0,0,.14,2.25A4.41,4.41,0,0,0,64.49,101a30.54,30.54,0,0,0,23.93,0C90.09,100.27,90.83,98.94,90.22,96.83Zm0,16.31a36.88,36.88,0,0,1-27.46.08c-.41,2.66-.34,3.19,1.64,4a30.33,30.33,0,0,0,23.93.06C90,116.63,90.86,115.38,90.24,113.14Z" transform="translate(-33.74 -50.96)"/><path class="cls-1" d="M94.39,73.93c0-7.5,5.69-13.42,12.81-13.4S120,66.56,119.92,74,114.16,87.5,107.1,87.47,94.37,81.42,94.39,73.93Zm17.22,2.84c0-2.36-1.65-3.46-3.56-4.35-.9-.42-2.44-.64-2-2.12s1.75-.88,2.8-.74c.6.07,1.33.69,1.78-.16,1.59-3-2.93-1.86-2.66-4.2.06-.53-1.56-.58-1.61-.11-.22,2-2.08,2.28-2.94,3.54a3.75,3.75,0,0,0,.91,5.26,28.87,28.87,0,0,0,2.85,1.54c.74.42,1.58.89,1.18,2a1.78,1.78,0,0,1-2.09,1,7.16,7.16,0,0,1-1.68-.43c-.7-.24-1.35-.71-1.71.55-.29,1-.17,1.69.85,2s2.17.37,2.41,2.08a.9.9,0,0,0,1.78,0c.21-1.53,1.18-1.92,2.11-2.59A4,4,0,0,0,111.61,76.77Z" transform="translate(-33.74 -50.96)"/><path class="cls-1" d="M92,74.62a3.53,3.53,0,1,1-3.47-3.71A3.69,3.69,0,0,1,92,74.62Z" transform="translate(-33.74 -50.96)"/><path class="cls-1" d="M122.28,74.63a3.52,3.52,0,1,1,7,.19,3.52,3.52,0,1,1-7-.19Z" transform="translate(-33.74 -50.96)"/></svg>