<svg id="Layer_1" data-name="Layer 1" xmlns="http://www.w3.org/2000/svg" viewBox="0 0 512 214.01"><defs><style>.cls-1{fill:#1d39d7;}.cls-2{fill:#2082ff;}</style></defs><path class="cls-1" d="M326.5,232.91c-7.91-8.39-18.12-12.64-30.34-12.64-12.37,0-22.65,4.25-30.56,12.64A40.93,40.93,0,0,0,257,246.78a48.67,48.67,0,0,0-2.9,17.15V318.8a2.12,2.12,0,0,0,2.12,2.12h17.55a2.12,2.12,0,0,0,2.12-2.12V263.93a24.58,24.58,0,0,1,1.53-8.66,21.93,21.93,0,0,1,4.23-7.07,19.74,19.74,0,0,1,4.2-3.52,19.23,19.23,0,0,1,20.59.12,20.7,20.7,0,0,1,4,3.4,22.11,22.11,0,0,1,4.23,7.07,24.57,24.57,0,0,1,1.52,8.66V318.8a2.12,2.12,0,0,0,2.12,2.12h17.89a2.12,2.12,0,0,0,2.13-2.12V263.93a49.82,49.82,0,0,0-2.84-17.14A38.2,38.2,0,0,0,326.5,232.91Z" transform="translate(0 -149)"/><path class="cls-1" d="M439,273.76h0a11.17,11.17,0,0,0-11.79,7.07c-3.26,8.45-10.68,20.48-26.63,21.27a25.26,25.26,0,0,1-11.45-2.26,26.25,26.25,0,0,1-8.82-6.26,28,28,0,0,1-5.72-9.49,34,34,0,0,1-2-10.32l1.95,3.8a15,15,0,0,0,20.7,6.25l45.32-25.43A9.73,9.73,0,0,0,444.24,245c-5.76-9.85-18.47-24.24-43.65-24.24a50.16,50.16,0,0,0-19.95,3.84,52.3,52.3,0,0,0-16.28,11.22c-9.69,9.77-14.6,21.95-14.6,36.22,0,14.49,4.91,26.79,14.6,36.56s21.88,14.72,36.23,14.72a52,52,0,0,0,34.52-12.79c6.55-5.53,10.7-14.66,13.18-22.24A11.17,11.17,0,0,0,439,273.76Zm-66.42-.28a34.46,34.46,0,0,1,2-13.29,28.35,28.35,0,0,1,5.72-9.45,26.26,26.26,0,0,1,8.82-6.25,28.26,28.26,0,0,1,11.45-2.26,26,26,0,0,1,12.66,3,3,3,0,0,1,0,5.26l-40.68,23Z" transform="translate(0 -149)"/><path class="cls-1" d="M506.4,300.2c-1.36.07-2.81.17-4.36.28s-3,.2-4.48.28-2.63.1-3.57.1c-13.78,0-15.37-5.7-15.37-10V254.64A10.62,10.62,0,0,1,489.24,244h12.14a10.62,10.62,0,1,0,0-21.23H489.24a10.62,10.62,0,0,1-10.62-10.62V210A10.62,10.62,0,0,0,468,199.38H456.82v89c0,9.72,2.45,17.63,7.3,23.53,5.32,6.29,12.84,9.49,22.36,9.49h14.9A10.62,10.62,0,0,0,512,310.81V300.08h-2.44C508.86,300.08,507.81,300.12,506.4,300.2Z" transform="translate(0 -149)"/><path class="cls-2" d="M91.86,150.58c-2.75.88-5.53,1.7-8.3,2.52-10.31,3.05-42.12,13.15-52.23,16.83-1.24.45-2.23,1.29-2.23,2.23,20.73-3.19,64.22-11.87,85.14-15.09C113.52,156.31,109.71,144.89,91.86,150.58Z" transform="translate(0 -149)"/><path class="cls-2" d="M145.28,247.36Q140,213,134.72,178.65a19.29,19.29,0,0,0-3.89-9.52c-5.08-6.23-11.68-8.38-19.5-7.18Q60.66,169.74,10,177.55a34.67,34.67,0,0,0-4.42.92C1.31,179.7,0,181.53,0,186a65.49,65.49,0,0,0,1,10.36q11.09,72,22.16,143.93a49.58,49.58,0,0,0,1.4,6.79c2.05,6.73,4,8.1,10.81,7.06,34.36-5.27,68.69-10.68,103.06-15.8,10.89-1.62,19.43-11.41,17.32-23.69C151.91,292.29,148.73,269.8,145.28,247.36ZM139.58,319c-8.3,2.42-16.64,4.88-25.41,4.48C99.64,322.81,91.49,314.69,91,300c-.35-10.69-.07-21.41-.07-32.12,0-13.18,0-26.36,0-39.54a79.24,79.24,0,0,0-.4-9.87c-1.22-9.38-5.65-13.67-14.1-14-9.7-.41-14.69,3.11-17.25,12.28a30.36,30.36,0,0,0-1,4.83c-.67,6,.18,7,6.38,7.54a23,23,0,0,0,3.71,0c4.73-.35,6.86,1.77,6.51,6.53a47,47,0,0,0,0,6.17c.26,4.38-2,5.88-6,5.58-1.23-.09-2.48.14-3.71,0-5.37-.56-7.21,1.87-7.16,7.16.19,19.36.13,38.72,0,58.08-.05,8.59-.18,8.79-8.93,8.74-18.11-.09-15.31,2.27-15.46-14.49s0-33.78-.06-50.66c0-7.2-.1-7.47-7.79-8.73-3.58-.59-5.09-2-5-5.47a60.47,60.47,0,0,0,0-6.17c-.36-4.62,1.51-7.07,6.31-6.7,5.71.43,7-2.7,6.62-7.64A41.78,41.78,0,0,1,35.55,207C38.66,196,46,189.32,56.3,185.91c12.06-4,24.4-3.7,36.51-.09,13.67,4.07,22,15.19,22.53,30.6.45,11.92.09,23.88.09,35.82h.07c0,10.3,0,20.6,0,30.89a55.32,55.32,0,0,0,.62,9.82c1.36,7,4.22,8.89,11.25,8.05,9.25-1.11,9.25-1.11,12.58,7.62.73,1.92,1.56,3.81,2.19,5.76C142.92,316.76,142,318.31,139.58,319Z" transform="translate(0 -149)"/><path class="cls-2" d="M241.8,223.53c-.83,0-1.65,0-2.47,0-12.32,0-12.3,0-16,11.55q-8.61,27-17.33,54c-.35,1.08-1.16,2.48-2.09,2.82-2.47.92-2.25-1.64-2.69-2.81q-9.94-26.55-19.69-53.18c-4.52-12.37-4.45-12.39-17-12.38-1.23,0-2.47,0-3.7,0-9.08.18-9.22.24-5.89,8.65,10.43,26.38,20.52,52.92,31.74,79,4,9.28,2,16.59-2.34,24.35-2.68,4.76-6.5,7-12.19,6.47-7.88-.72-7.92-.5-8.09,6.54-.06,2.06-.11,4.12,0,6.17.36,6.8.88,7.3,8,8.05,18,1.89,30.88-5.92,37.4-23.4,6.75-18.09,13-36.38,19.41-54.59q9.45-26.75,18.84-53.49C250.35,223.71,250.25,223.68,241.8,223.53Z" transform="translate(0 -149)"/><path class="cls-1" d="M254.07,354.52l7-18.16h2.59l7.42,18.16h-2.73L266.2,349h-7.59l-2,5.5Zm5.23-7.46h6.16l-1.9-5c-.58-1.53-1-2.79-1.28-3.77a24.66,24.66,0,0,1-1,3.47Z" transform="translate(0 -149)"/><path class="cls-1" d="M272.7,338.93v-2.57h2.23v2.57Zm0,15.59V341.37h2.23v13.15Z" transform="translate(0 -149)"/><path class="cls-1" d="M278.3,354.52V341.37h2v2a5.42,5.42,0,0,1,1.42-1.85,2.51,2.51,0,0,1,1.43-.44,4.35,4.35,0,0,1,2.29.72l-.77,2.07a3.11,3.11,0,0,0-1.63-.49,2.11,2.11,0,0,0-1.31.44,2.45,2.45,0,0,0-.84,1.22,9,9,0,0,0-.37,2.6v6.89Z" transform="translate(0 -149)"/><path class="cls-1" d="M286.71,354.52V336.36h2.23v18.16Z" transform="translate(0 -149)"/><path class="cls-1" d="M292.41,338.93v-2.57h2.23v2.57Zm0,15.59V341.37h2.23v13.15Z" transform="translate(0 -149)"/><path class="cls-1" d="M298,354.52V341.37h2v1.87a4.71,4.71,0,0,1,4.18-2.17,5.45,5.45,0,0,1,2.19.43,3.44,3.44,0,0,1,1.49,1.12,4.26,4.26,0,0,1,.69,1.64,13,13,0,0,1,.13,2.17v8.09h-2.23v-8a6.1,6.1,0,0,0-.26-2,2.21,2.21,0,0,0-.93-1.08,3,3,0,0,0-1.55-.4,3.63,3.63,0,0,0-2.46.9c-.69.61-1,1.75-1,3.44v7.18Z" transform="translate(0 -149)"/><path class="cls-1" d="M321.13,350.28l2.31.29a5.67,5.67,0,0,1-2,3.13,6.86,6.86,0,0,1-8.34-.66,7,7,0,0,1-1.69-5,7.26,7.26,0,0,1,1.71-5.15,5.78,5.78,0,0,1,4.43-1.83,5.63,5.63,0,0,1,4.31,1.79,7.14,7.14,0,0,1,1.67,5.06c0,.13,0,.33,0,.59h-9.81a5.08,5.08,0,0,0,1.23,3.32,3.63,3.63,0,0,0,2.75,1.15,3.39,3.39,0,0,0,2.09-.64A4.29,4.29,0,0,0,321.13,350.28Zm-7.31-3.6h7.34a4.46,4.46,0,0,0-.84-2.49,3.41,3.41,0,0,0-2.76-1.29,3.58,3.58,0,0,0-2.59,1A4.08,4.08,0,0,0,313.82,346.68Z" transform="translate(0 -149)"/><path class="cls-1" d="M341.86,352.89a8.26,8.26,0,0,1-2.38,1.49,6.92,6.92,0,0,1-2.46.43,4.78,4.78,0,0,1-3.33-1.05,3.5,3.5,0,0,1-1.17-2.71,3.69,3.69,0,0,1,.44-1.77,3.64,3.64,0,0,1,1.16-1.27,5.33,5.33,0,0,1,1.6-.74,18.09,18.09,0,0,1,2-.33,20,20,0,0,0,4-.77c0-.3,0-.5,0-.58a2.46,2.46,0,0,0-.63-1.92,3.76,3.76,0,0,0-2.54-.76,3.88,3.88,0,0,0-2.32.56,3.32,3.32,0,0,0-1.11,1.95l-2.18-.3a5.35,5.35,0,0,1,1-2.26,4.21,4.21,0,0,1,2-1.32,8.71,8.71,0,0,1,3-.47,7.82,7.82,0,0,1,2.74.4,3.54,3.54,0,0,1,1.54,1,3.51,3.51,0,0,1,.7,1.52,13,13,0,0,1,.11,2v3a30.7,30.7,0,0,0,.14,3.93,5.15,5.15,0,0,0,.56,1.58h-2.32A4.71,4.71,0,0,1,341.86,352.89Zm-.18-5a16.41,16.41,0,0,1-3.65.84,8.7,8.7,0,0,0-1.94.44,2,2,0,0,0-.88.73,2,2,0,0,0-.31,1.06,1.89,1.89,0,0,0,.68,1.48,2.87,2.87,0,0,0,2,.6,4.55,4.55,0,0,0,2.29-.57,3.44,3.44,0,0,0,1.48-1.54,5.34,5.34,0,0,0,.36-2.23Z" transform="translate(0 -149)"/><path class="cls-1" d="M347,355.61l2.17.32a2.07,2.07,0,0,0,.75,1.46,3.75,3.75,0,0,0,2.27.62,4,4,0,0,0,2.39-.62,3.06,3.06,0,0,0,1.14-1.73,13.84,13.84,0,0,0,.16-2.86,4.6,4.6,0,0,1-3.64,1.72,5,5,0,0,1-4.2-2,7.53,7.53,0,0,1-1.48-4.69,8.68,8.68,0,0,1,.68-3.48,5.42,5.42,0,0,1,2-2.45,5.34,5.34,0,0,1,3-.87,4.72,4.72,0,0,1,3.84,1.88v-1.58h2.06v11.36a10.76,10.76,0,0,1-.63,4.36,4.65,4.65,0,0,1-2,2,6.93,6.93,0,0,1-3.34.74,6.29,6.29,0,0,1-3.8-1.06A3.58,3.58,0,0,1,347,355.61Zm1.85-7.9a5.72,5.72,0,0,0,1,3.77,3.4,3.4,0,0,0,5.16,0,5.55,5.55,0,0,0,1-3.71,5.36,5.36,0,0,0-1.08-3.64,3.29,3.29,0,0,0-2.58-1.23,3.22,3.22,0,0,0-2.52,1.21A5.34,5.34,0,0,0,348.82,347.71Z" transform="translate(0 -149)"/><path class="cls-1" d="M370.48,350.28l2.31.29a5.67,5.67,0,0,1-2,3.13,6.86,6.86,0,0,1-8.34-.66,7,7,0,0,1-1.69-5,7.26,7.26,0,0,1,1.71-5.15,5.78,5.78,0,0,1,4.43-1.83,5.63,5.63,0,0,1,4.31,1.79,7.14,7.14,0,0,1,1.67,5.06c0,.13,0,.33,0,.59H363a5.08,5.08,0,0,0,1.23,3.32A3.63,3.63,0,0,0,367,353a3.39,3.39,0,0,0,2.09-.64A4.29,4.29,0,0,0,370.48,350.28Zm-7.31-3.6h7.34a4.46,4.46,0,0,0-.84-2.49,3.41,3.41,0,0,0-2.76-1.29,3.58,3.58,0,0,0-2.59,1A4.08,4.08,0,0,0,363.17,346.68Z" transform="translate(0 -149)"/><path class="cls-1" d="M375.58,354.52V341.37h2v1.87a4.72,4.72,0,0,1,4.19-2.17,5.37,5.37,0,0,1,2.18.43,3.38,3.38,0,0,1,1.49,1.12,4.27,4.27,0,0,1,.7,1.64,13.28,13.28,0,0,1,.12,2.17v8.09H384v-8a6.1,6.1,0,0,0-.26-2,2.14,2.14,0,0,0-.92-1.08,3,3,0,0,0-1.55-.4,3.63,3.63,0,0,0-2.46.9c-.69.61-1,1.75-1,3.44v7.18Z" transform="translate(0 -149)"/><path class="cls-1" d="M398.27,349.7l2.19.29a5.64,5.64,0,0,1-1.84,3.54,5.32,5.32,0,0,1-3.63,1.28,5.66,5.66,0,0,1-4.34-1.76A7.13,7.13,0,0,1,389,348a9.19,9.19,0,0,1,.7-3.73,4.93,4.93,0,0,1,2.15-2.39,6.4,6.4,0,0,1,3.14-.8,5.44,5.44,0,0,1,3.5,1.08,5,5,0,0,1,1.75,3.08l-2.17.34a3.59,3.59,0,0,0-1.09-2,2.88,2.88,0,0,0-1.9-.67,3.47,3.47,0,0,0-2.74,1.21,5.74,5.74,0,0,0-1.05,3.82,6,6,0,0,0,1,3.85A3.31,3.31,0,0,0,395,353a3.13,3.13,0,0,0,2.19-.8A4,4,0,0,0,398.27,349.7Z" transform="translate(0 -149)"/><path class="cls-1" d="M402.27,359.58l-.25-2.09a5.07,5.07,0,0,0,1.27.2,2.48,2.48,0,0,0,1.19-.25,2.07,2.07,0,0,0,.74-.7,12.59,12.59,0,0,0,.68-1.66c0-.12.1-.3.19-.54l-5-13.17h2.4l2.73,7.61c.36,1,.68,2,1,3a29.75,29.75,0,0,1,.91-3l2.81-7.66h2.23l-5,13.37a26.22,26.22,0,0,1-1.25,3,4.4,4.4,0,0,1-1.36,1.62,3.26,3.26,0,0,1-1.84.51A4.47,4.47,0,0,1,402.27,359.58Z" transform="translate(0 -149)"/><path class="cls-1" d="M422.09,359.55V341.37h2v1.71a5.11,5.11,0,0,1,1.62-1.51,4.49,4.49,0,0,1,2.19-.5,5.14,5.14,0,0,1,3,.87,5.35,5.35,0,0,1,2,2.44,9.55,9.55,0,0,1-.07,7.1,5.5,5.5,0,0,1-5,3.33,4.13,4.13,0,0,1-2-.47,4.58,4.58,0,0,1-1.45-1.18v6.39Zm2-11.53a5.69,5.69,0,0,0,1,3.75,3.13,3.13,0,0,0,2.48,1.21,3.24,3.24,0,0,0,2.55-1.26,6,6,0,0,0,1.06-3.89,5.78,5.78,0,0,0-1-3.76,3.09,3.09,0,0,0-2.47-1.25,3.2,3.2,0,0,0-2.52,1.33A5.93,5.93,0,0,0,424.11,348Z" transform="translate(0 -149)"/><path class="cls-1" d="M436.14,354.52V336.36h2.23v18.16Z" transform="translate(0 -149)"/><path class="cls-1" d="M450.41,352.89a8.29,8.29,0,0,1-2.39,1.49,6.83,6.83,0,0,1-2.45.43,4.83,4.83,0,0,1-3.34-1.05,3.52,3.52,0,0,1-1.16-2.71,3.58,3.58,0,0,1,.44-1.77,3.52,3.52,0,0,1,1.15-1.27,5.45,5.45,0,0,1,1.6-.74,17.94,17.94,0,0,1,2-.33,19.87,19.87,0,0,0,4-.77c0-.3,0-.5,0-.58a2.46,2.46,0,0,0-.63-1.92,3.76,3.76,0,0,0-2.54-.76,3.9,3.9,0,0,0-2.32.56,3.32,3.32,0,0,0-1.11,1.95l-2.18-.3a5.47,5.47,0,0,1,1-2.26,4.26,4.26,0,0,1,2-1.32,8.75,8.75,0,0,1,3-.47,7.74,7.74,0,0,1,2.74.4,3.58,3.58,0,0,1,1.55,1,3.5,3.5,0,0,1,.69,1.52,11.89,11.89,0,0,1,.11,2v3a30,30,0,0,0,.15,3.93,4.9,4.9,0,0,0,.56,1.58h-2.33A4.7,4.7,0,0,1,450.41,352.89Zm-.19-5a16.3,16.3,0,0,1-3.64.84,8.82,8.82,0,0,0-1.95.44,2,2,0,0,0-.87.73,2,2,0,0,0,.36,2.54,2.89,2.89,0,0,0,2,.6,4.58,4.58,0,0,0,2.29-.57,3.37,3.37,0,0,0,1.47-1.54,5.34,5.34,0,0,0,.36-2.23Z" transform="translate(0 -149)"/><path class="cls-1" d="M460.79,352.52l.32,2a8.38,8.38,0,0,1-1.68.2,3.86,3.86,0,0,1-1.88-.38,2.17,2.17,0,0,1-.94-1,8.08,8.08,0,0,1-.27-2.63V343.1H454.7v-1.73h1.64v-3.26l2.21-1.34v4.6h2.24v1.73h-2.24v7.69a3.78,3.78,0,0,0,.12,1.22.9.9,0,0,0,.38.44,1.47,1.47,0,0,0,.77.16A6.93,6.93,0,0,0,460.79,352.52Z" transform="translate(0 -149)"/><path class="cls-1" d="M463.5,354.52V343.1h-2v-1.73h2V340a6,6,0,0,1,.24-2,2.83,2.83,0,0,1,1.13-1.41,4.16,4.16,0,0,1,2.27-.53,10.76,10.76,0,0,1,2.08.22l-.33,1.94a7.69,7.69,0,0,0-1.31-.12,2,2,0,0,0-1.44.43,2.35,2.35,0,0,0-.42,1.62v1.22h2.56v1.73h-2.56v11.42Z" transform="translate(0 -149)"/><path class="cls-1" d="M469.19,347.94c0-2.43.67-4.24,2-5.41a6.13,6.13,0,0,1,4.13-1.46,5.9,5.9,0,0,1,4.44,1.78,6.77,6.77,0,0,1,1.72,4.9,8.81,8.81,0,0,1-.76,4,5.43,5.43,0,0,1-2.22,2.26,6.53,6.53,0,0,1-3.18.8,5.9,5.9,0,0,1-4.46-1.77A7,7,0,0,1,469.19,347.94Zm2.29,0a5.54,5.54,0,0,0,1.1,3.78,3.67,3.67,0,0,0,5.54,0,5.76,5.76,0,0,0,1.1-3.85,5.44,5.44,0,0,0-1.11-3.7,3.66,3.66,0,0,0-5.53,0A5.53,5.53,0,0,0,471.48,347.94Z" transform="translate(0 -149)"/><path class="cls-1" d="M484.1,354.52V341.37h2v2a5.42,5.42,0,0,1,1.42-1.85,2.51,2.51,0,0,1,1.43-.44,4.35,4.35,0,0,1,2.29.72l-.77,2.07a3.11,3.11,0,0,0-1.63-.49,2.16,2.16,0,0,0-1.32.44,2.43,2.43,0,0,0-.83,1.22,9,9,0,0,0-.37,2.6v6.89Z" transform="translate(0 -149)"/><path class="cls-1" d="M492.56,354.52V341.37h2v1.84a4.63,4.63,0,0,1,4-2.14,4.27,4.27,0,0,1,2.4.61,3.28,3.28,0,0,1,1.32,1.69,4.72,4.72,0,0,1,4.06-2.3,4,4,0,0,1,3,1.08,4.66,4.66,0,0,1,1.05,3.34v9h-2.22v-8.29a6.24,6.24,0,0,0-.21-1.92,1.92,1.92,0,0,0-.79-.95,2.46,2.46,0,0,0-1.34-.36,3.13,3.13,0,0,0-2.3.92,4.08,4.08,0,0,0-.92,3v7.64h-2.22V346a3.74,3.74,0,0,0-.55-2.22,2.05,2.05,0,0,0-1.78-.75,3.23,3.23,0,0,0-1.74.5,2.83,2.83,0,0,0-1.16,1.44,8.19,8.19,0,0,0-.36,2.75v6.83Z" transform="translate(0 -149)"/></svg>